<?xml version="1.0" encoding="UTF-8" standalone="no"?>
<svg width="140px" height="140px" viewBox="0 0 140 140" version="1.1" xmlns="http://www.w3.org/2000/svg" xmlns:xlink="http://www.w3.org/1999/xlink">
    <!-- Generator: Sketch 40 (33762) - http://www.bohemiancoding.com/sketch -->
    <title>basics_free_data_sim</title>
    <desc>Created with Sketch.</desc>
    <defs></defs>
    <g id="Artboards" stroke="none" stroke-width="1" fill="none" fill-rule="evenodd">
        <g id="basics_free_data_sim">
            <g id="basic-sim">
                <rect id="Rectangle" x="0" y="0" width="140" height="140"></rect>
                <circle id="Oval-8" fill="#EEEEEE" cx="70" cy="70" r="53"></circle>
                <path d="M98.1176167,21.041082 L61.7973667,9.23983199 C59.2368667,8.40808199 56.4866167,9.80908199 55.6548667,12.369582 L31.2401167,87.511332 C30.4076167,90.071832 31.8093667,92.822082 34.3698667,93.654582 L86.5316167,110.603082 C89.0921167,111.434832 91.8423667,110.033082 92.6741167,107.472582 L111.942367,48.173082 L98.1176167,21.041082" id="Fill-4" fill="#00BCD4"></path>
                <path d="M58.4276167,32.099832 C56.4978667,31.476582 54.4278667,32.534832 53.8046167,34.465332 L36.7683667,85.325082 C36.1451167,87.255582 37.2123667,89.300082 39.1421167,89.924082 L84.4968667,104.576832 C86.4266167,105.200832 88.5693667,104.219832 89.1933667,102.290082 L105.595117,51.521832 L103.453867,47.011332 L58.4276167,32.099832" id="Fill-6" fill="#FFFFFF"></path>
                <path d="M63.9798667,54.740832 L67.3023667,44.237082 C67.5468667,43.463082 68.3726167,43.034832 69.1458667,43.279332 L75.4481167,45.272832 C76.2213667,45.517332 76.6503667,46.343082 76.4058667,47.116332 L73.0826167,57.620082 C72.8381167,58.393332 72.0131167,58.822332 71.2391167,58.577832 L64.9368667,56.584332 C64.1636167,56.339082 63.7353667,55.514082 63.9798667,54.740832" id="Fill-7" fill="#F2A600"></path>
                <path d="M75.8838667,58.505832 L79.2063667,48.002082 C79.4508667,47.228832 80.2766167,46.799832 81.0498667,47.045082 L87.3521167,49.038582 C88.1261167,49.283082 88.5543667,50.108082 88.3098667,50.882082 L84.9873667,61.385832 C84.7428667,62.159082 83.9171167,62.588082 83.1438667,62.343582 L76.8416167,60.349332 C76.0683667,60.104832 75.6393667,59.279832 75.8838667,58.505832" id="Fill-8" fill="#F4B400"></path>
                <path d="M51.6326167,52.375332 L54.8823667,42.101832 C55.4096167,40.434582 57.2051167,39.502332 58.8723667,40.029582 L63.5441167,41.507082 C64.3173667,41.751582 64.7456167,42.577332 64.5011167,43.350582 L61.1786167,53.854332 C60.9341167,54.628332 60.1083667,55.056582 59.3351167,54.812082 L51.6326167,52.375332" id="Fill-9" fill="#F2A600"></path>
                <path d="M92.9546167,50.810832 L97.8251167,52.351332 C99.3828667,52.844082 100.254367,54.521832 99.7616167,56.078832 L96.4488667,66.551832 L88.7456167,64.115082 C87.9723667,63.870582 87.5433667,63.045582 87.7886167,62.271582 L91.1111167,51.767832 C91.3556167,50.994582 92.1813667,50.565582 92.9546167,50.810832" id="Fill-10" fill="#F4B400"></path>
                <path d="M87.4736167,94.924332 C86.9276167,96.650832 85.0683667,97.616832 83.3418667,97.070082 L78.7781167,95.627082 C78.0048667,95.381832 77.5758667,94.556832 77.8203667,93.783582 L81.1428667,83.279832 C81.3881167,82.505832 82.2131167,82.077582 82.9863667,82.322082 L90.6896167,84.758832 L87.4736167,94.924332" id="Fill-11" fill="#F4B400"></path>
                <path d="M61.2716167,90.089082 L54.9693667,88.095582 C54.1961167,87.851082 53.7671167,87.025332 54.0116167,86.252082 L57.3341167,75.748332 C57.5793667,74.975082 58.4043667,74.546082 59.1776167,74.790582 L65.4798667,76.784082 C66.2538667,77.029332 66.6821167,77.854332 66.4376167,78.627582 L63.1151167,89.131332 C62.8706167,89.905332 62.0448667,90.333582 61.2716167,90.089082" id="Fill-12" fill="#F2A600"></path>
                <path d="M59.6876167,58.004832 L94.1621167,68.909832 C94.9353667,69.154332 95.3643667,69.980082 95.1198667,70.753332 L92.0186167,80.557332 C91.7741167,81.330582 90.9483667,81.759582 90.1751167,81.514332 L58.6638667,71.546832 C57.1166167,71.057082 55.4658667,71.915082 54.9761167,73.461582 L50.7678667,86.766582 L44.2593667,84.707832 C42.8261167,84.254082 42.0318667,82.724832 42.4856167,81.291582 L50.3028667,56.576832 C50.5481167,55.803582 51.3731167,55.374582 52.1463667,55.619832 L59.6876167,58.004832" id="Fill-13" fill="#F2A600"></path>
                <path d="M73.1756167,93.854832 L66.8733667,91.861332 C66.1001167,91.616832 65.6718667,90.791082 65.9163667,90.017832 L69.2388667,79.514082 C69.4833667,78.740082 70.3091167,78.311832 71.0823667,78.556332 L77.3846167,80.549832 C78.1578667,80.794332 78.5868667,81.620082 78.3423667,82.393332 L75.0191167,92.897082 C74.7746167,93.671082 73.9496167,94.099332 73.1756167,93.854832" id="Fill-14" fill="#F4B400"></path>
            </g>
        </g>
    </g>
</svg>