<?xml version="1.0" encoding="UTF-8" standalone="no"?>
<svg width="140px" height="140px" viewBox="0 0 140 140" version="1.1" xmlns="http://www.w3.org/2000/svg" xmlns:xlink="http://www.w3.org/1999/xlink">
    <!-- Generator: Sketch 40 (33762) - http://www.bohemiancoding.com/sketch -->
    <title>basics_hotspot</title>
    <desc>Created with Sketch.</desc>
    <defs></defs>
    <g id="Artboards" stroke="none" stroke-width="1" fill="none" fill-rule="evenodd">
        <g id="basics_hotspot">
            <g id="basic-calls">
                <rect id="Rectangle" x="0" y="0" width="140" height="140"></rect>
                <circle id="Oval-5" fill="#EEEEEE" cx="70" cy="70" r="53"></circle>
                <g id="Group-4" transform="translate(34.000000, 43.000000)">
                    <path d="M13.9325538,25.984245 C18.8713846,35.6735613 26.7859077,43.6072365 36.4905231,48.5377493 L43.2615385,41.7639886 C44.2027692,40.8236752 45.5555692,40.5456695 46.74,40.9276353 C50.5926154,42.1845014 54.7059692,42.871339 58.9783385,42.871339 C60.8724923,42.871339 62.4053538,44.4015385 62.4053538,46.2938462 L62.4053538,58.2737892 C62.4053538,60.1649288 60.8724923,61.6962963 58.9783385,61.6962963 C48.6692308,61.6962963 38.9856615,59.0201994 30.5847385,54.325641 C21.1478769,49.0517094 13.3315692,41.2301709 8.06769231,31.7931624 C3.39661538,23.4202849 0.735446154,13.7753561 0.735446154,3.50900285 C0.735446154,1.61786325 2.26947692,0.0864957265 4.16129231,0.0864957265 L16.1529231,0.0864957265 C18.0459077,0.0864957265 19.5787692,1.61786325 19.5787692,3.50900285 C19.5787692,7.77720798 20.2662769,11.8865527 21.5243692,15.7365812 C21.9067077,16.9198575 21.6272615,18.271339 20.6860308,19.2104843 L13.9325538,25.984245" id="Fill-4" fill="#00ACC1"></path>
                    <path d="M36.4905231,48.5377493 L43.2615385,41.7639886 C44.2027692,40.8236752 45.5555692,40.5456695 46.74,40.9276353 C50.5926154,42.1845014 54.7059692,42.871339 58.9783385,42.871339 C60.8724923,42.871339 62.4053538,44.4015385 62.4053538,46.2938462 L62.4053538,58.2737892 C62.4053538,60.1649288 60.8724923,61.6962963 58.9783385,61.6962963 C48.6692308,61.6962963 38.9856615,59.0201994 30.5847385,54.325641 L36.4905231,48.5377493" id="Fill-5" fill="#00BCD4"></path>
                    <path d="M8.06769231,31.7931624 C3.39661538,23.4202849 0.735446154,13.7753561 0.735446154,3.50900285 C0.735446154,1.61786325 2.26947692,0.0864957265 4.16129231,0.0864957265 L16.1529231,0.0864957265 C18.0459077,0.0864957265 19.5787692,1.61786325 19.5787692,3.50900285 C19.5787692,7.77720798 20.2662769,11.8865527 21.5243692,15.7365812 C21.9067077,16.9198575 21.6272615,18.271339 20.6860308,19.2104843 L13.9325538,25.984245 L8.06769231,31.7931624" id="Fill-6" fill="#00BCD4"></path>
                </g>
                <g id="Page-1" transform="translate(87.281746, 53.390873) scale(-1, 1) rotate(-90.000000) translate(-87.281746, -53.390873) translate(65.281746, 30.890873)" fill="#F4B400">
                    <path d="M14.4454874,44.3897184 C13.1627713,44.3897184 12.1231288,43.3500759 12.1231288,42.0673598 C12.1231288,36.978298 7.98236337,32.8375326 2.89330153,32.8375326 C1.61058545,32.8375326 0.570942914,31.79789 0.570942914,30.515174 C0.570942914,29.2324579 1.61058545,28.1928154 2.89330153,28.1928154 C10.5431508,28.1928154 16.767846,34.4167364 16.767846,42.0673598 C16.767846,43.3500759 15.7282035,44.3897184 14.4454874,44.3897184" id="Fill-4"></path>
                    <path d="M27.1079365,42.2001777 C25.8252204,42.2001777 24.7855779,41.1605352 24.7855779,39.8778191 C24.7855779,29.0138255 15.946681,20.1749287 5.0826874,20.1749287 C3.79997133,20.1749287 2.76032879,19.1352861 2.76032879,17.85257 C2.76032879,16.569854 3.79997133,15.5302114 5.0826874,15.5302114 C18.5082425,15.5302114 29.4302951,26.452264 29.4302951,39.8778191 C29.4302951,41.1605352 28.3906526,42.2001777 27.1079365,42.2001777" id="Fill-1"></path>
                    <path d="M38.3755629,40.1406904 C40.1729943,22.3488585 23.1367006,5.29385436 4.4697593,6.23488673 C2.33637371,6.34243434 0.60235792,5.5983504 0.60235792,3.4622557 C0.60235792,1.32616101 2.33427433,0.740659004 4.4697593,0.689624673 C27.3745918,0.142239498 44.4682102,17.2358578 43.920825,40.1406904 C43.8697907,42.276175 43.2842887,44.0080918 41.148194,44.0080918 C39.0120993,44.0080918 38.1608555,42.2659671 38.3755629,40.1406904 Z" id="Fill-1"></path>
                </g>
            </g>
        </g>
    </g>
</svg>