<?xml version="1.0" encoding="UTF-8" standalone="no"?>
<svg width="140px" height="140px" viewBox="0 0 140 140" version="1.1" xmlns="http://www.w3.org/2000/svg" xmlns:xlink="http://www.w3.org/1999/xlink">
    <!-- Generator: Sketch 40 (33762) - http://www.bohemiancoding.com/sketch -->
    <title>basics_devices</title>
    <desc>Created with Sketch.</desc>
    <defs></defs>
    <g id="Artboards" stroke="none" stroke-width="1" fill="none" fill-rule="evenodd">
        <g id="basics_devices">
            <g id="basic-devices">
                <rect id="Rectangle" x="0" y="0" width="140" height="140"></rect>
                <circle id="Oval-7" fill="#EEEEEE" cx="70" cy="70" r="53"></circle>
                <g id="Page-1" transform="translate(27.000000, 25.000000)">
                    <g id="Group-3" transform="translate(0.000000, 0.888791)" fill="#3D3E3C">
                        <path d="M42.7672298,69.3513446 L4.801828,69.3513446 C2.14995219,69.3513446 -0.000120048701,67.1979943 -0.000120048701,64.5420754 L-0.000120048701,5.58764938 C-0.000120048701,2.93173048 2.14995219,0.778380214 4.801828,0.778380214 L42.7672298,0.778380214 C45.4191056,0.778380214 47.5691778,2.93173048 47.5691778,5.58764938 L47.5691778,64.5420754 C47.5691778,67.1979943 45.4191056,69.3513446 42.7672298,69.3513446" id="Fill-1"></path>
                    </g>
                    <path d="M41.4896715,63.8043715 L5.90483547,63.8043715 C4.57949781,63.8043715 3.50386144,62.7282975 3.50386144,61.3997369 L3.50386144,11.7103679 C3.50386144,10.3818073 4.57949781,9.30573333 5.90483547,9.30573333 L41.4896715,9.30573333 C42.8162097,9.30573333 43.8906455,10.3818073 43.8906455,11.7103679 L43.8906455,61.3997369 C43.8906455,62.7282975 42.8162097,63.8043715 41.4896715,63.8043715" id="Fill-4" fill="#00BCD4"></path>
                    <polyline id="Fill-6" fill="#00ACC1" points="19.8125834 69.8985571 18.9386289 27.6142603 13.4163886 63.1451409"></polyline>
                    <path d="M23.7409371,67.6520273 L73.6391798,67.6520273 C76.2910556,67.6520273 78.4411278,65.498677 78.4411278,62.8427581 L78.4411278,27.2673918 C78.4411278,24.6114729 76.2910556,22.4581226 73.6391798,22.4581226 L23.7409371,22.4581226 C21.0890613,22.4581226 18.938989,24.6114729 18.938989,27.2673918 L18.938989,62.8427581 C18.938989,65.498677 21.0890613,67.6520273 23.7409371,67.6520273" id="Fill-8" fill="#3D3E3C"></path>
                    <path d="M25.214655,65.5625201 L72.165702,65.5625201 C72.8283709,65.5625201 73.366189,65.0238819 73.366189,64.3602028 L73.366189,29.2044452 C73.366189,28.540766 72.8283709,28.0021279 72.165702,28.0021279 L25.214655,28.0021279 C24.5519861,28.0021279 24.0141679,28.540766 24.0141679,29.2044452 L24.0141679,64.3602028 C24.0141679,65.0238819 24.5519861,65.5625201 25.214655,65.5625201" id="Fill-10" fill="#00BCD4"></path>
                    <path d="M15.697434,70.6231938 L81.6822027,70.6231938 C84.335279,70.6231938 86.4841507,68.4698435 86.4841507,65.8139246 L86.4841507,61.6995948 L10.895486,61.6995948 L10.895486,65.8139246 C10.895486,68.4698435 13.0455582,70.6231938 15.697434,70.6231938" id="Fill-12" fill="#3D3E3C"></path>
                    <path d="M43.9246052,64.5902061 L53.4552716,64.5902061 C54.7818097,64.5902061 55.8562456,63.5141321 55.8562456,62.1855715 L55.8562456,61.6998353 L41.5236312,61.6998353 L41.5236312,62.1855715 C41.5236312,63.5141321 42.598067,64.5902061 43.9246052,64.5902061" id="Fill-14" fill="#1C1D1B"></path>
                    <path d="M19.1179958,6.86430784 L26.3941476,6.86430784 C27.0364081,6.86430784 27.5574195,6.34250214 27.5574195,5.69806007 L27.5574195,5.62592103 C27.5574195,4.98147897 27.0364081,4.45967326 26.3941476,4.45967326 L19.1179958,4.45967326 C18.4745347,4.45967326 17.9535234,4.98147897 17.9535234,5.62592103 L17.9535234,5.69806007 C17.9535234,6.34250214 18.4745347,6.86430784 19.1179958,6.86430784" id="Fill-22" fill="#1C1D1B"></path>
                    <path d="M31.1592407,5.66199055 C31.1592407,6.3256697 30.6214225,6.86430784 29.9587537,6.86430784 C29.2960848,6.86430784 28.7582666,6.3256697 28.7582666,5.66199055 C28.7582666,4.99831141 29.2960848,4.45967326 29.9587537,4.45967326 C30.6214225,4.45967326 31.1592407,4.99831141 31.1592407,5.66199055" id="Fill-24" fill="#1C1D1B"></path>
                </g>
            </g>
        </g>
    </g>
</svg>