<?xml version="1.0" encoding="UTF-8" standalone="no"?>
<svg width="1440px" height="580px" viewBox="0 0 1440 580" version="1.1" xmlns="http://www.w3.org/2000/svg" xmlns:xlink="http://www.w3.org/1999/xlink">
    <!-- Generator: Sketch 40 (33762) - http://www.bohemiancoding.com/sketch -->
    <title>phones</title>
    <desc>Created with Sketch.</desc>
    <defs></defs>
    <g id="Hero" stroke="none" stroke-width="1" fill="none" fill-rule="evenodd">
        <g id="phones">
            <g id="Group-11" transform="translate(-199.000000, 136.000000)">
                <g id="Landscape" transform="translate(0.000000, 176.000000)">
                    <g id="City" transform="translate(532.000000, 64.000000)" fill="#F6F6F6">
                        <polygon id="Fill-1" points="10 230.981722 77.7170936 230.981722 77.7170936 168 10 168"></polygon>
                        <polygon id="Fill-2" points="0 177.06243 83.8992596 177.06243 83.8992596 168 0 168"></polygon>
                        <polygon id="Fill-3" points="22 149.06243 126.35308 149.06243 126.35308 140 22 140"></polygon>
                        <polygon id="Fill-4" points="676 234.099267 763.879992 234.099267 763.879992 161 676 161"></polygon>
                        <polygon id="Fill-5" points="667 170.06243 772.669429 170.06243 772.669429 161 667 161"></polygon>
                        <polygon id="Fill-6" points="30 220.22202 119.762342 220.22202 119.762342 140 30 140"></polygon>
                        <polygon id="Fill-7" points="647 218.591929 736.033598 218.591929 736.033598 131 647 131"></polygon>
                        <polygon id="Fill-8" points="44 154.125819 79.6724875 154.125819 79.6724875 131 44 131"></polygon>
                        <polygon id="Fill-9" points="98 145.779123 146.291581 145.779123 146.291581 122 98 122"></polygon>
                        <polygon id="Fill-10" points="295 186.785177 454.826973 186.785177 454.826973 56 295 56"></polygon>
                        <polygon id="Fill-11" points="262 167.785177 315.921351 167.785177 315.921351 37 262 37"></polygon>
                        <polygon id="Fill-12" points="518.765458 225.785177 604.353966 225.785177 604.353966 93 518.765458 93"></polygon>
                        <polygon id="Fill-13" points="518 94.4219424 611.321094 94.4219424 611.321094 87 518 87"></polygon>
                        <polygon id="Fill-14" points="404 74.4219424 497.321094 74.4219424 497.321094 67 404 67"></polygon>
                        <polygon id="Fill-15" points="286 63.4219424 379.321094 63.4219424 379.321094 56 286 56"></polygon>
                        <polygon id="Fill-16" points="411 198.785177 490.353966 198.785177 490.353966 68 411 68"></polygon>
                        <polygon id="Fill-17" points="246 203.402051 298 203.402051 298 66 246 66"></polygon>
                        <polygon id="Fill-18" points="184 235.006669 266.574269 235.006669 266.574269 72 184 72"></polygon>
                        <polygon id="Fill-19" points="120 60.9496918 199.123533 60.9496918 199.123533 52 120 52"></polygon>
                        <polygon id="Fill-20" points="100 107.949692 198.394943 107.949692 198.394943 99 100 99"></polygon>
                        <polygon id="Fill-21" points="153 229.109258 189.767045 229.109258 189.767045 36 153 36"></polygon>
                        <polygon id="Fill-22" points="534 171.88957 567.588508 171.88957 567.588508 77 534 77"></polygon>
                        <polygon id="Fill-23" points="466 174.88957 519.472006 174.88957 519.472006 80 466 80"></polygon>
                        <polygon id="Fill-24" points="592 206.88957 645.472006 206.88957 645.472006 112 592 112"></polygon>
                        <polygon id="Fill-25" points="399 135.88957 432.588508 135.88957 432.588508 41 399 41"></polygon>
                        <polygon id="Fill-26" points="129 224.671816 232.437108 224.671816 232.437108 52 129 52"></polygon>
                        <polygon id="Fill-27" points="108 228.637366 191.532007 228.637366 191.532007 100 108 100"></polygon>
                        <polygon id="Fill-28" points="628 190.90721 709.95498 190.90721 709.95498 102 628 102"></polygon>
                        <polygon id="Fill-29" points="651 109.56723 674.468173 109.56723 674.468173 83 651 83"></polygon>
                        <polygon id="Fill-30" points="651 118.83443 654.227504 118.83443 654.227504 93 651 93"></polygon>
                        <polygon id="Fill-31" points="671 118.83443 674.227504 118.83443 674.227504 93 671 93"></polygon>
                        <polyline id="Fill-32" points="651 83.4599052 662.733367 74 674.468173 83.4599052"></polyline>
                        <polygon id="Fill-33" points="289.802895 0 273 42.3982978 304.204965 41.4342402"></polygon>
                    </g>
                    <g id="Group-3" transform="translate(1037.000000, 0.000000)">
                        <rect id="Rectangle-path" stroke="#00ACC1" stroke-width="1.5" fill="#EEEEEE" x="51.05" y="59.816819" width="10.7" height="116.111883"></rect>
                        <path d="M16.6,6.8702011 C16.6,2.86288848 19.25,0.959414991 22.5,0.959414991 C25.75,0.959414991 28.4,2.86288848 28.4,6.8702011 L16.6,6.8702011 L16.6,6.8702011 Z" id="Shape" stroke="#00ACC1" stroke-width="1.5" fill="#F5F5F5"></path>
                        <path d="M22.25,6.61974406 L22.25,12.630713" id="Shape" stroke="#00ACC1" stroke-width="1.5" fill="#FFFFFF"></path>
                        <path d="M40.45,6.8702011 C40.45,2.86288848 43.1,0.959414991 46.35,0.959414991 C49.6,0.959414991 52.25,2.86288848 52.25,6.8702011 L40.45,6.8702011 L40.45,6.8702011 Z" id="Shape" stroke="#00ACC1" stroke-width="1.5" fill="#F5F5F5"></path>
                        <path d="M45.75,6.61974406 L45.75,12.630713" id="Shape" stroke="#00ACC1" stroke-width="1.5" fill="#FFFFFF"></path>
                        <rect id="Rectangle-path" stroke="#00ACC1" stroke-width="1.5" fill="#FFFFFF" x="6.1" y="12.2299817" width="96.55" height="47.5868373"></rect>
                        <polygon id="Shape" fill="#9E9E9E" opacity="0.2" points="52.15 74.7941499 60.65 80.5045704 60.65 65.9780622 52.15 65.9780622"></polygon>
                        <ellipse id="Oval" fill="#00ACC1" cx="24.15" cy="36.0234004" rx="1.9" ry="1.90347349"></ellipse>
                        <polyline id="Shape" stroke="#00ACC1" stroke-width="1.5" points="52.1 35.7228519 51.9 35.7228519 30.75 35.7228519"></polyline>
                        <rect id="Rectangle-path" stroke="#00ACC1" stroke-width="1.5" fill="#F5F5F5" x="0.35" y="59.816819" width="108.1" height="5.05923218"></rect>
                        <path d="M112,5.36745887 L64.35,5.36745887 C62.6,5.36745887 60.8,5.6179159 60.8,7.37111517 L60.8,37.4760512 C60.8,39.2292505 62.6,41.4332724 64.35,41.4332724 L72.3,41.4332724 L72.3,49.1974406 C72.3,50.6500914 74.45,51.8522852 75.65,51.0007313 L89.8,41.4332724 L112,41.4332724 C113.75,41.4332724 114.75,39.2292505 114.75,37.4760512 L114.75,7.37111517 C114.75,5.6179159 113.75,5.36745887 112,5.36745887 L112,5.36745887 Z" id="Shape" stroke="#F9A825" stroke-width="1.5" fill="#FFECB3"></path>
                        <g id="Group" transform="translate(72.000000, 18.641682)" stroke="#F9A825" stroke-width="1.5" fill="#FFFFFF">
                            <ellipse id="Oval" cx="3.8" cy="3.75685558" rx="3.55" ry="3.55648995"></ellipse>
                            <ellipse id="Oval" cx="15.55" cy="3.75685558" rx="3.55" ry="3.55648995"></ellipse>
                            <ellipse id="Oval" cx="27.3" cy="3.75685558" rx="3.55" ry="3.55648995"></ellipse>
                        </g>
                    </g>
                    <circle id="Oval-2" stroke="#4AC3D2" stroke-width="1.5" fill="#FAFAFA" cx="918.5" cy="1076.5" r="918.5"></circle>
                </g>
                <g id="Group-5" transform="translate(1326.000000, 176.000000)" stroke="#00ACC1" stroke-width="1.5">
                    <path d="M38.6,10.8402194 C40.55,4.77915905 46.25,0.371115174 53,0.371115174 C61.35,0.371115174 68.1,7.13345521 68.1,15.4987203" id="Shape"></path>
                    <path d="M38.6,10.7400366 C40.55,4.67897623 46.25,0.270932358 53,0.270932358 C61.35,0.270932358 68.1,7.03327239 68.1,15.3985375" id="Shape"></path>
                    <path d="M67.45,10.5897623 C68.4,9.93857404 69.55,9.53784278 70.8,9.53784278 C74,9.53784278 76.65,12.142596 76.65,15.3985375 L83.9,15.3985375" id="Shape"></path>
                    <path d="M39.15,19.1053016 C40,18.1034735 40.5,16.8010969 40.5,15.3985375 C40.5,12.1926874 37.9,9.63802559 34.75,9.63802559 C31.55,9.63802559 29,12.2427788 29,15.3985375 L28.85,15.3985375 L15.15,15.3985375" id="Shape"></path>
                    <path d="M26.5,20.9085923 L0,20.9085923" id="Shape"></path>
                </g>
                <g id="Group-7" transform="translate(265.000000, 58.000000)">
                    <path d="M23.5,10.742596 C25.45,4.68153565 31.15,0.273491773 37.9,0.273491773 C46.25,0.273491773 53,7.03583181 53,15.4010969" id="Shape" stroke="#00ACC1" stroke-width="1.5"></path>
                    <path d="M23.5,10.6424132 C25.45,4.58135283 31.15,0.173308958 37.9,0.173308958 C46.25,0.173308958 53,6.93564899 53,15.3009141" id="Shape" stroke="#00ACC1" stroke-width="1.5"></path>
                    <ellipse id="Oval" fill="#00ACC1" cx="76.35" cy="20.5104205" rx="1.2" ry="1.20219378"></ellipse>
                    <path d="M24,19.0076782 C24.85,18.0058501 25.35,16.7034735 25.35,15.3009141 C25.35,12.095064 22.75,9.54040219 19.6,9.54040219 C16.45,9.54040219 13.85,12.1451554 13.85,15.3009141 L13.7,15.3009141 L0,15.3009141" id="Shape" stroke="#00ACC1" stroke-width="1.5"></path>
                    <path d="M62,15.8519196 L48,15.8519196" id="Shape" stroke="#00ACC1" stroke-width="1.5"></path>
                    <path d="M72.5,20.8610603 L54.5,20.8610603" id="Shape" stroke="#00ACC1" stroke-width="1.5"></path>
                </g>
                <g id="Group-6" transform="translate(564.000000, 157.000000)">
                    <g id="Group">
                        <path d="M29.2,10.9700183 C31.15,4.90895795 36.85,0.500914077 43.6,0.500914077 C51.95,0.500914077 58.7,7.26325411 58.7,15.6285192" id="Shape" stroke="#00ACC1" stroke-width="1.5"></path>
                        <path d="M29.2,10.8197441 C31.15,4.75868373 36.85,0.350639854 43.6,0.350639854 C51.95,0.350639854 58.7,7.11297989 58.7,15.478245" id="Shape" stroke="#00ACC1" stroke-width="1.5"></path>
                        <path d="M58.05,10.7195612 C59,10.0683729 60.15,9.66764168 61.4,9.66764168 C64.6,9.66764168 67.25,12.2723949 67.25,15.5283364 L74.5,15.5283364" id="Shape" stroke="#00ACC1" stroke-width="1.5"></path>
                        <ellipse id="Oval" fill="#00ACC1" cx="1.45" cy="15.6786106" rx="1.2" ry="1.20219378"></ellipse>
                        <path d="M29.75,19.1850091 C30.6,18.183181 31.1,16.8808044 31.1,15.478245 C31.1,12.2723949 28.5,9.71773309 25.35,9.71773309 C22.15,9.71773309 19.6,12.3224863 19.6,15.478245 L19.45,15.478245 L5.75,15.478245" id="Shape" stroke="#00ACC1" stroke-width="1.5"></path>
                    </g>
                </g>
                <g id="Group-6" transform="translate(1500.000000, 0.000000)">
                    <g id="Group">
                        <path d="M29.2,10.9700183 C31.15,4.90895795 36.85,0.500914077 43.6,0.500914077 C51.95,0.500914077 58.7,7.26325411 58.7,15.6285192" id="Shape" stroke="#00ACC1" stroke-width="1.5"></path>
                        <path d="M29.2,10.8197441 C31.15,4.75868373 36.85,0.350639854 43.6,0.350639854 C51.95,0.350639854 58.7,7.11297989 58.7,15.478245" id="Shape" stroke="#00ACC1" stroke-width="1.5"></path>
                        <path d="M58.05,10.7195612 C59,10.0683729 60.15,9.66764168 61.4,9.66764168 C64.6,9.66764168 67.25,12.2723949 67.25,15.5283364 L74.5,15.5283364" id="Shape" stroke="#00ACC1" stroke-width="1.5"></path>
                        <ellipse id="Oval" fill="#00ACC1" cx="1.45" cy="15.6786106" rx="1.2" ry="1.20219378"></ellipse>
                        <path d="M29.75,19.1850091 C30.6,18.183181 31.1,16.8808044 31.1,15.478245 C31.1,12.2723949 28.5,9.71773309 25.35,9.71773309 C22.15,9.71773309 19.6,12.3224863 19.6,15.478245 L19.45,15.478245 L5.75,15.478245" id="Shape" stroke="#00ACC1" stroke-width="1.5"></path>
                    </g>
                </g>
                <g id="Group-2" transform="translate(838.000000, 228.000000)">
                    <polyline id="Shape" stroke="#00ACC1" stroke-width="1.5" points="140.700692 13.371831 111.477509 0.165492958 68.5795848 14.3316901"></polyline>
                    <rect id="Rectangle-path" stroke="#F9A825" stroke-width="1.65" fill="#FFE082" x="103.095156" y="133.420423" width="24.1608997" height="7.38098592"></rect>
                    <polygon id="Shape" stroke="#F9A825" stroke-width="1.65" points="111.477509 0.165492958 111.477509 133.25493 118.873702 133.25493 118.873702 6.95070423"></polygon>
                    <g id="Group" transform="translate(103.391003, 6.950704)" stroke-width="1.65" stroke="#F9A825">
                        <path id="Shape"></path>
                        <path id="Shape"></path>
                        <path id="Shape"></path>
                        <path id="Shape"></path>
                        <path id="Shape"></path>
                        <path id="Shape"></path>
                        <path id="Shape"></path>
                        <path id="Shape"></path>
                        <polyline id="Shape" points="23.4377163 126.469718 15.482699 118.890141 8.08650519 118.890141"></polyline>
                        <path d="M8.08650519,66.8260563 L15.384083,74.1408451" id="Shape"></path>
                        <g transform="translate(7.889273, 44.352113)" id="Shape">
                            <path></path>
                            <path></path>
                            <path></path>
                            <path></path>
                            <path></path>
                            <path></path>
                            <path d="M0.197231834,15.0267606 L7.49480969,22.3746479"></path>
                            <path d="M0.197231834,7.57957746 L7.49480969,14.9274648"></path>
                            <path d="M0.197231834,0.132394366 L7.49480969,7.48028169"></path>
                        </g>
                        <g transform="translate(7.889273, 22.176056)" id="Shape">
                            <path></path>
                            <path></path>
                            <path></path>
                            <path></path>
                            <path></path>
                            <path></path>
                            <path d="M0.197231834,14.9274648 L7.49480969,22.2422535"></path>
                            <path d="M0.197231834,7.48028169 L7.49480969,14.7950704"></path>
                            <path d="M0.197231834,0.0330985915 L7.49480969,7.38098592"></path>
                        </g>
                        <g transform="translate(7.889273, 0.000000)" id="Shape">
                            <path></path>
                            <path></path>
                            <path></path>
                            <path></path>
                            <path></path>
                            <path d="M0.197231834,14.8943662 L7.49480969,22.2091549"></path>
                            <path d="M0.197231834,7.4471831 L7.49480969,14.7619718"></path>
                            <path d="M0.197231834,0 L7.49480969,7.34788732"></path>
                        </g>
                        <path d="M8.08650519,74.2401408 L15.384083,81.5880282" id="Shape"></path>
                        <path d="M8.08650519,81.6873239 L15.384083,89.0352113" id="Shape"></path>
                        <path d="M8.08650519,89.134507 L15.384083,96.4823944" id="Shape"></path>
                        <path d="M8.08650519,96.5816901 L15.384083,103.896479" id="Shape"></path>
                        <path d="M8.08650519,104.028873 L15.384083,111.343662" id="Shape"></path>
                        <path d="M8.08650519,111.442958 L15.384083,118.790845" id="Shape"></path>
                        <polyline id="Shape" points="0 126.469718 8.08650519 118.890141 15.384083 126.238028"></polyline>
                    </g>
                    <path d="M34.6089965,20.0105634 L30.8615917,39.4394366" id="Shape" stroke="#F9A825" stroke-width="1.65"></path>
                    <path d="M34.8719723,20.0105634 L38.6193772,39.4394366" id="Shape" stroke="#F9A825" stroke-width="1.65"></path>
                    <g id="Group" transform="translate(0.000000, 14.232394)" stroke-width="1.65" stroke="#F9A825">
                        <polygon id="Shape" points="0.197231834 7.54647887 147.99827 7.54647887 147.99827 0.0992957746 7.59342561 0.0992957746"></polygon>
                        <path d="M111.477509,0.0992957746 L104.179931,7.4471831" id="Shape"></path>
                        <path d="M96.9152249,0.0992957746 L104.179931,7.4471831" id="Shape"></path>
                        <path d="M96.9152249,0.0992957746 L89.6176471,7.4471831" id="Shape"></path>
                        <path d="M126.138408,0.0992957746 L133.435986,7.4471831" id="Shape"></path>
                        <path d="M126.138408,0.0992957746 L118.873702,7.4471831" id="Shape"></path>
                        <path d="M140.700692,0.0992957746 L133.435986,7.4471831" id="Shape"></path>
                        <path d="M82.3529412,0.0992957746 L89.6176471,7.4471831" id="Shape"></path>
                        <path d="M82.3529412,0.0992957746 L75.0553633,7.4471831" id="Shape"></path>
                        <path d="M67.9152249,0.0992957746 L75.1799308,7.4471831" id="Shape"></path>
                        <path d="M67.9152249,0.0992957746 L60.6176471,7.4471831" id="Shape"></path>
                        <path d="M53.3529412,0.0992957746 L60.6176471,7.4471831" id="Shape"></path>
                        <path d="M53.3529412,0.0992957746 L46.0553633,7.4471831" id="Shape"></path>
                        <path d="M37.9152249,0.0992957746 L45.1799308,7.4471831" id="Shape"></path>
                        <path d="M37.9152249,0.0992957746 L30.6176471,7.4471831" id="Shape"></path>
                        <path d="M23.3529412,0.0992957746 L30.6176471,7.4471831" id="Shape"></path>
                        <path d="M23.3529412,0.0992957746 L16.0553633,7.4471831" id="Shape"></path>
                        <path d="M7.91522491,0.0992957746 L15.1799308,7.4471831" id="Shape"></path>
                        <path d="M7.91522491,0.0992957746 L0.617647059,7.4471831" id="Shape"></path>
                        <path d="M67.7577855,0.0992957746 L75.0553633,7.4471831" id="Shape"></path>
                    </g>
                    <polygon id="Rectangle-path" stroke="#00ACC1" stroke-width="1.5" fill="#FFFFFF" points="140.700692 9.43309859 148.704152 9.43309859 148.704152 28.4978873 140.700692 28.4978873"></polygon>
                    <polygon id="Rectangle-path" stroke="#00ACC1" stroke-width="1.5" fill="#FFFFFF" points="148.700692 9.43309859 156.704152 9.43309859 156.704152 28.4978873 148.700692 28.4978873"></polygon>
                    <polygon id="Rectangle-path" stroke="#00ACC1" stroke-width="1.5" fill="#FFFFFF" points="156.700692 9.43309859 164.704152 9.43309859 164.704152 28.4978873 156.700692 28.4978873"></polygon>
                    <rect id="Rectangle-path" stroke="#F9A825" stroke-width="1.65" fill="#FFE082" x="29.8096886" y="20.3556338" width="9.8615917" height="3.30985915"></rect>
                    <g id="Group" transform="translate(103.062284, 21.845070)">
                        <g>
                            <polygon id="Shape" fill="#FFE082" points="15.8114187 14.6957746 3.71453287 14.6957746 0.262975779 0 15.8114187 0"></polygon>
                            <polyline id="Shape" stroke="#F9A825" stroke-width="1.65" fill="#FFFFFF" points="0.98615917 3.04507042 5.85121107 3.04507042 5.85121107 11.3859155 3.05709343 11.3859155"></polyline>
                            <rect id="Rectangle-path" stroke="#F9A825" stroke-width="1.65" fill="#FFFFFF" x="8.44809689" y="3.04507042" width="4.43771626" height="8.34084507"></rect>
                        </g>
                        <polygon id="Shape" stroke="#F9A825" stroke-width="1.65" points="15.8114187 14.6957746 3.71453287 14.6957746 0.262975779 0 15.8114187 0"></polygon>
                    </g>
                </g>
                <g id="Group-8" transform="translate(675.000000, 383.000000)" stroke="#00ACC1" stroke-width="1.5" fill="#FFFFFF">
                    <ellipse id="Oval" cx="2.9" cy="1.80329068" rx="1.8" ry="1.80329068"></ellipse>
                    <g id="Group" transform="translate(0.000000, 5.610238)">
                        <path d="M0.25,2.80511883 C0.25,1.40255941 1.35,0.250457038 2.75,0.250457038 C4.15,0.250457038 5.25,1.35246801 5.25,2.75502742 L5.25,7.8142596 L0.25,7.8142596 L0.25,2.80511883 L0.25,2.80511883 Z" id="Shape"></path>
                        <path d="M5.25,8.01462523 L5.25,12.0219378" id="Shape"></path>
                        <path d="M0.25,8.01462523 L0.25,12.0219378" id="Shape"></path>
                    </g>
                    <path d="M5.5,8.31517367 L9.35,10.4691042" id="Shape"></path>
                </g>
                <g id="Group-8" transform="translate(820.000000, 258.000000)">
                    <g id="Group-10" transform="translate(0.000000, 32.000000)" stroke-width="1.5" stroke="#F9A825">
                        <g id="Group-3">
                            <path d="M8.28826531,0.496753247 C7.62908163,-0.165584416 6.62091837,-0.165584416 5.96173469,0.496753247 C-1.9872449,8.48376623 -1.9872449,21.4577922 5.96173469,29.4448052 C6.62091837,30.1071429 7.62908163,30.1071429 8.28826531,29.4448052 C8.94744898,28.7824675 8.94744898,27.7694805 8.28826531,27.1071429 C1.61887755,20.4058442 1.61887755,9.53571429 8.28826531,2.83441558 C8.90867347,2.17207792 8.90867347,1.12012987 8.28826531,0.496753247 L8.28826531,0.496753247 Z" id="Shape"></path>
                            <path d="M13.1352041,5.40584416 C12.4760204,4.74350649 11.4678571,4.74350649 10.8086735,5.40584416 C5.57397959,10.6655844 5.53520408,19.275974 10.8086735,24.5357143 C11.4678571,25.1980519 12.4760204,25.1980519 13.1352041,24.5357143 C13.7943878,23.8733766 13.7943878,22.8603896 13.1352041,22.1980519 C9.18010204,18.224026 9.18010204,11.7175325 13.1352041,7.74350649 C13.7943878,7.08116883 13.7943878,6.02922078 13.1352041,5.40584416 L13.1352041,5.40584416 Z" id="Shape"></path>
                            <path d="M18.1372449,10.3928571 C17.4780612,9.73051948 16.469898,9.73051948 15.8107143,10.3928571 C13.2903061,12.9253247 13.2903061,17.0162338 15.8107143,19.5097403 C16.469898,20.1720779 17.4780612,20.1720779 18.1372449,19.5097403 C18.7964286,18.8474026 18.7964286,17.8344156 18.1372449,17.1720779 C16.9352041,15.9642857 16.9352041,13.9383117 18.1372449,12.7305195 C18.7964286,12.1071429 18.7964286,11.0551948 18.1372449,10.3928571 L18.1372449,10.3928571 Z" id="Shape"></path>
                        </g>
                    </g>
                    <g id="Group-10" transform="translate(93.500000, 47.000000) scale(-1, 1) translate(-93.500000, -47.000000) translate(84.000000, 32.000000)" stroke-width="1.5" stroke="#F9A825">
                        <g id="Group-3">
                            <path d="M8.28826531,0.496753247 C7.62908163,-0.165584416 6.62091837,-0.165584416 5.96173469,0.496753247 C-1.9872449,8.48376623 -1.9872449,21.4577922 5.96173469,29.4448052 C6.62091837,30.1071429 7.62908163,30.1071429 8.28826531,29.4448052 C8.94744898,28.7824675 8.94744898,27.7694805 8.28826531,27.1071429 C1.61887755,20.4058442 1.61887755,9.53571429 8.28826531,2.83441558 C8.90867347,2.17207792 8.90867347,1.12012987 8.28826531,0.496753247 L8.28826531,0.496753247 Z" id="Shape"></path>
                            <path d="M13.1352041,5.40584416 C12.4760204,4.74350649 11.4678571,4.74350649 10.8086735,5.40584416 C5.57397959,10.6655844 5.53520408,19.275974 10.8086735,24.5357143 C11.4678571,25.1980519 12.4760204,25.1980519 13.1352041,24.5357143 C13.7943878,23.8733766 13.7943878,22.8603896 13.1352041,22.1980519 C9.18010204,18.224026 9.18010204,11.7175325 13.1352041,7.74350649 C13.7943878,7.08116883 13.7943878,6.02922078 13.1352041,5.40584416 L13.1352041,5.40584416 Z" id="Shape"></path>
                            <path d="M18.1372449,10.3928571 C17.4780612,9.73051948 16.469898,9.73051948 15.8107143,10.3928571 C13.2903061,12.9253247 13.2903061,17.0162338 15.8107143,19.5097403 C16.469898,20.1720779 17.4780612,20.1720779 18.1372449,19.5097403 C18.7964286,18.8474026 18.7964286,17.8344156 18.1372449,17.1720779 C16.9352041,15.9642857 16.9352041,13.9383117 18.1372449,12.7305195 C18.7964286,12.1071429 18.7964286,11.0551948 18.1372449,10.3928571 L18.1372449,10.3928571 Z" id="Shape"></path>
                        </g>
                    </g>
                    <g id="Group-9" transform="translate(27.000000, 0.000000)">
                        <path d="M4.9,92.6691042 L44.5,92.7191956 C46.7,92.7191956 48.5,90.9159049 48.5,88.711883 L48.6,4.25776965 C48.6,2.05374771 46.8,0.250457038 44.6,0.250457038 L5,0.200365631 C2.8,0.200365631 1,2.00365631 1,4.20767824 L0.9,88.6617916 C0.9,90.9159049 2.7,92.6691042 4.9,92.6691042 L4.9,92.6691042 Z" id="Shape" stroke="#00ACC1" stroke-width="1.5" fill="#F5F5F5"></path>
                        <rect id="Rectangle-path" stroke="#00ACC1" stroke-width="1.50000063" fill="#FFFFFF" transform="translate(24.757384, 46.305573) rotate(180.052601) translate(-24.757384, -46.305573) " x="6.33237642" y="13.0949555" width="36.8500155" height="66.4212346"></rect>
                        <ellipse id="Oval" fill="#00ACC1" cx="17.5" cy="6.76234004" rx="1.45" ry="1.45265082"></ellipse>
                        <path d="M22.9,7.01279707 L31.9,7.01279707" id="Shape" stroke="#00ACC1" stroke-width="1.5"></path>
                        <g id="Group" transform="translate(11.500000, 32.058501)" stroke="#00ACC1" stroke-width="1.5" fill="#F5F5F5">
                            <path d="M20.45,4.45813528 C21,3.35612431 20.55,2.00365631 19.5,1.45265082 C18.2,0.801462523 16.3,0.350639854 14.6,0.350639854 C9,0.350639854 4.25,4.95904936 4.25,10.4691042 L4.25,12.773309 L2.6,12.773309 C1.4,12.773309 0.4,13.5246801 0.4,14.7769653 C0.4,16.0292505 1.4,16.7806216 2.6,16.7806216 L4.25,16.7806216 L4.25,25.9974406 C4.25,27.2497258 5.05,28.2515539 6.25,28.2515539 C7.45,28.2515539 8.25,27.2497258 8.25,25.9974406 L8.25,16.7806216 L14.5,16.7806216 C15.7,16.7806216 16.7,16.0292505 16.7,14.7769653 C16.7,13.5246801 15.7,12.773309 14.5,12.773309 L8.25,12.773309 L8.25,10.4691042 C8.25,7.46361974 11.25,4.80877514 14.4,4.80877514 C15.4,4.80877514 16.7,5.05923218 17.35,5.40987203 C18.45,6.01096892 19.9,5.56014625 20.45,4.45813528 L20.45,4.45813528 Z" id="Shape"></path>
                            <path d="M22,12.773309 C20.8,12.773309 19.75,13.7751371 19.75,15.0274223 L19.75,25.9974406 C19.75,27.2497258 20.8,28.2515539 22,28.2515539 C23.2,28.2515539 24.25,27.2497258 24.25,25.9974406 L24.25,15.0274223 C24.25,13.7751371 23.2,12.773309 22,12.773309 L22,12.773309 Z" id="Shape"></path>
                        </g>
                    </g>
                </g>
                <g id="Group-2" transform="translate(1098.000000, 347.000000)">
                    <rect id="Rectangle-path" stroke="#00ACC1" stroke-width="1.5" fill="#FAFAFA" x="2.85" y="25.393053" width="97.7" height="27.0994516"></rect>
                    <rect id="Rectangle-path" stroke="#00ACC1" stroke-width="1.5" fill="#FAFAFA" x="0.3" y="20.9349177" width="102.75" height="4.20767824"></rect>
                    <rect id="Rectangle-path" stroke="#00ACC1" stroke-width="1.5" fill="#FFFFFF" x="42.75" y="38.5670932" width="15.5" height="13.4244973"></rect>
                    <path d="M89.6,54.6965265 L73.2,54.6965265 C72.65,54.6965265 72.2,55.1473492 72.2,55.6983547 L72.2,56.7001828 C72.2,57.2511883 72.65,57.702011 73.2,57.702011 L89.6,57.702011 C90.15,57.702011 90.6,57.2511883 90.6,56.7001828 L90.6,55.6983547 C90.6,55.1473492 90.15,54.6965265 89.6,54.6965265 L89.6,54.6965265 Z" id="Shape" stroke="#00ACC1" stroke-width="1.5" fill="#FAFAFA"></path>
                    <path d="M73.75,57.952468 L73.75,60.9579525" id="Shape" stroke="#00ACC1" stroke-width="1.5"></path>
                    <path d="M89.25,57.952468 L89.25,60.9579525" id="Shape" stroke="#00ACC1" stroke-width="1.5"></path>
                    <path d="M96,39.6691042 L99.5,39.6691042" id="Shape" stroke="#00ACC1" stroke-width="1.5" fill="#FAFAFA"></path>
                    <path d="M3,33.1572212 L7,33.1572212" id="Shape" stroke="#00ACC1" stroke-width="1.5" fill="#FAFAFA"></path>
                    <g id="Group" transform="translate(22.500000, 30.402194)">
                        <rect id="Rectangle-path" stroke="#00ACC1" stroke-width="1.5" fill="#FFFFFF" x="0.4" y="0.400731261" width="10.7" height="12.773309"></rect>
                        <rect id="Rectangle-path" fill="#9E9E9E" opacity="0.15" x="1.15" y="1.15210238" width="9.2" height="3.30603291"></rect>
                    </g>
                    <g id="Group" transform="translate(70.000000, 30.402194)">
                        <rect id="Rectangle-path" stroke="#00ACC1" stroke-width="1.5" fill="#FFFFFF" x="0.45" y="0.400731261" width="10.7" height="12.773309"></rect>
                        <rect id="Rectangle-path" fill="#9E9E9E" opacity="0.15" x="1.2" y="1.15210238" width="9.2" height="3.30603291"></rect>
                    </g>
                    <path d="M50.75,38.416819 L50.75,51.9414991" id="Shape" stroke="#00ACC1" stroke-width="1.5"></path>
                    <rect id="Rectangle-path" stroke="#00ACC1" stroke-width="1.5" fill="#FAFAFA" x="73.6" y="48.5352834" width="15.55" height="6.16124314"></rect>
                    <g id="Group" transform="translate(37.000000, 0.347349)">
                        <g id="Shape">
                            <path d="M1.1,17.7824497 L1.1,15.728702 C1.1,12.0219378 2.7,8.66581353 5.5,6.26142596 L3.3,4.05740402 C2.65,3.40621572 2.65,2.30420475 3.3,1.60292505 C3.65,1.25228519 4.05,1.10201097 4.5,1.10201097 C4.95,1.10201097 5.4,1.3023766 5.7,1.60292505 L8.5,4.40804388 C10.1,3.65667276 11.8,3.30603291 13.5,3.30603291 C15.2,3.30603291 16.9,3.65667276 18.5,4.40804388 L21.3,1.60292505 C21.6,1.3023766 22.05,1.10201097 22.5,1.10201097 C22.95,1.10201097 23.4,1.3023766 23.7,1.60292505 C24.35,2.25411335 24.35,3.35612431 23.7,4.05740402 L21.5,6.26142596 C24.3,8.61572212 25.9,12.0219378 25.9,15.728702 L25.9,17.7824497 L1.1,17.7824497 L1.1,17.7824497 Z" fill="#FFFFFF"></path>
                            <path d="M4.55,1.85338208 C4.8,1.85338208 5.05,1.9535649 5.25,2.15393053 L8.4,5.30968921 C9.95,4.5583181 11.7,4.05740402 13.55,4.05740402 L13.55,4.05740402 C15.4,4.05740402 17.15,4.5583181 18.7,5.30968921 L21.85,2.15393053 C22.05,1.9535649 22.3,1.85338208 22.55,1.85338208 C22.8,1.85338208 23.05,1.9535649 23.25,2.15393053 C23.65,2.55466179 23.65,3.15575868 23.25,3.50639854 L20.45,6.31151737 C23.35,8.41535649 25.25,11.8215722 25.25,15.728702 L25.25,17.0310786 L1.95,17.0310786 L1.95,15.728702 C1.95,11.8716636 3.85,8.4654479 6.75,6.36160878 L3.95,3.55648995 C3.55,3.15575868 3.55,2.55466179 3.95,2.20402194 C4.05,1.9535649 4.3,1.85338208 4.55,1.85338208 L4.55,1.85338208 Z M4.55,0.350639854 L4.55,1.85338208 L4.55,0.350639854 C3.9,0.350639854 3.25,0.601096892 2.8,1.05191956 C1.85,2.00365631 1.85,3.60658135 2.8,4.5583181 L4.45,6.21133455 C1.85,8.66581353 0.4,12.0720293 0.35,15.6786106 L0.35,16.9809872 L0.35,18.4837294 L1.85,18.4837294 L25.15,18.4837294 L26.65,18.4837294 L26.65,16.9809872 L26.65,15.6786106 C26.65,12.0219378 25.2,8.66581353 22.6,6.16124314 L24.25,4.50822669 C25.2,3.55648995 25.2,1.9535649 24.25,1.00182815 C23.8,0.551005484 23.15,0.300548446 22.5,0.300548446 C21.85,0.300548446 21.2,0.551005484 20.75,1.00182815 L18.35,3.40621572 C16.8,2.75502742 15.15,2.45447898 13.55,2.45447898 C11.9,2.45447898 10.3,2.75502742 8.75,3.40621572 L6.35,1.00182815 C5.8,0.601096892 5.2,0.350639854 4.55,0.350639854 L4.55,0.350639854 L4.55,0.350639854 Z" fill="#00ACC1"></path>
                        </g>
                        <ellipse id="Oval" stroke="#00ACC1" stroke-width="1.5" fill="#FFFFFF" cx="8.35" cy="11.8215722" rx="1.8" ry="1.80329068"></ellipse>
                        <ellipse id="Oval" stroke="#00ACC1" stroke-width="1.5" fill="#FFFFFF" cx="18.7" cy="11.8215722" rx="1.8" ry="1.80329068"></ellipse>
                    </g>
                    <rect id="Rectangle-path" stroke="#00ACC1" stroke-width="1.5" fill="#F5F5F5" x="34.55" y="17.3784278" width="31.9" height="3.55648995"></rect>
                </g>
                <g id="Group" transform="translate(731.500000, 354.000000) scale(-1, 1) translate(-731.500000, -354.000000) translate(691.000000, 308.000000)" stroke="#00ACC1" stroke-width="1.5">
                    <path d="M9.75,3.5 L9.75,53.5056229" id="Line" stroke-linecap="square"></path>
                    <path d="M73.8426724,74.7759398 L73.8426724,72.3548872 L73.8426724,72.3548872 C73.8426724,70.9368421 72.7603448,69.7954887 71.4336207,69.7954887 L65.9172414,69.7954887 C64.5905172,69.7954887 63.5081897,70.9368421 63.5081897,72.3548872 L63.5081897,72.3548872 L63.5081897,74.7759398" id="Shape"></path>
                    <path d="M52.7896552,83.6300752 L79.9525862,83.6300752 C80.4064655,83.6300752 80.7905172,83.2496241 80.7905172,82.8 L80.7905172,75.5714286 C80.7905172,75.1218045 80.4064655,74.7413534 79.9525862,74.7413534 L52.7896552,74.7413534 C52.3357759,74.7413534 51.9517241,75.1218045 51.9517241,75.5714286 L51.9517241,82.8 C51.9517241,83.2842105 52.3357759,83.6300752 52.7896552,83.6300752 L52.7896552,83.6300752 Z" id="Shape"></path>
                    <polyline id="Shape" points="56.0715517 75.2255639 56.0715517 65.7488722 46.749569 65.7488722 43.5025862 73.8421053 43.5025862 84.0796992"></polyline>
                    <path d="M9.74094828,53.3639098 L13.4068966,56.6842105 L13.4068966,62.5293233 L18.3646552,58.9323308 C18.3646552,58.9323308 21.5767241,56.0270677 18.3646552,52.4646617 C15.8159483,49.6285714 13.2672414,51.4270677 13.2672414,51.4270677 L9.74094828,53.3639098 L9.74094828,53.3639098 Z" id="Shape" fill="#FFFFFF"></path>
                    <path d="M10.1948276,53.3639098 L6.52887931,56.6842105 L6.52887931,62.5293233 L1.57112069,58.9323308 C1.57112069,58.9323308 -1.64094828,56.0270677 1.57112069,52.4646617 C4.11982759,49.6285714 6.66853448,51.4270677 6.66853448,51.4270677 L10.1948276,53.3639098 L10.1948276,53.3639098 Z" id="Shape" fill="#FFFFFF"></path>
                    <path d="M69.3387931,69.7954887 L11.9405172,3.52781955" id="Shape"></path>
                    <ellipse id="Oval" fill="#FFFFFF" cx="9.95043103" cy="2.62857143" rx="2.26939655" ry="2.42105263"></ellipse>
                    <path d="M44.5150862,70.4180451 L11.4168103,4.46165414" id="Shape"></path>
                    <path d="M72.5508621,91.7578947 L36.1706897,91.7578947 C34.8788793,91.7578947 33.8314655,90.7203008 33.8314655,89.4406015 L33.8314655,85.9819549 C33.8314655,84.7022556 34.8788793,83.6646617 36.1706897,83.6646617 L72.5508621,83.6646617 C73.8426724,83.6646617 74.8900862,84.7022556 74.8900862,85.9819549 L74.8900862,89.4406015 C74.8900862,90.7203008 73.8426724,91.7578947 72.5508621,91.7578947 L72.5508621,91.7578947 Z" id="Shape" fill="#F5F5F5"></path>
                </g>
                <g id="Group" transform="translate(628.000000, 369.000000)" stroke="#00ACC1" stroke-width="1.5">
                    <path d="M0.05,9.51736746 C0.05,12.4226691 2.4,14.7769653 5.3,14.7769653 C8.2,14.7769653 10.55,12.4226691 10.55,9.51736746 C10.55,6.61206581 8.2,0.250457038 5.3,0.250457038 C2.4,0.250457038 0.05,6.61206581 0.05,9.51736746 L0.05,9.51736746 Z" id="Shape" fill="#F5F5F5"></path>
                    <path d="M5.25,8.01462523 L5.25,21.5393053" id="Shape"></path>
                </g>
                <g id="Group" transform="translate(600.000000, 350.000000)" stroke="#00ACC1" stroke-width="1.5">
                    <path d="M5.1,9.06654479 C5.35,6.01096892 7.55,0.450822669 10.25,0.450822669 C12.75,0.450822669 14.85,5.35978062 15.3,8.4654479 C18.9,10.1685558 21.45,13.8753199 21.45,18.1330896 C21.45,18.4837294 21.45,18.8844607 21.4,19.2351005 C22.85,20.2369287 23.8,21.8899452 23.8,23.7934186 C23.8,26.7989031 21.35,29.2533821 18.35,29.2533821 C17.05,29.2533821 15.8,28.8025594 14.9,28.0010969 C13.65,28.502011 12.25,28.8025594 10.85,28.8025594 C4.95,28.8025594 0.2,23.9937843 0.2,18.1330896 C0.1,14.3261426 2.1,10.9700183 5.1,9.06654479 L5.1,9.06654479 Z" id="Shape" fill="#F5F5F5"></path>
                    <path d="M10.75,11.0201097 L10.75,41.0749543" id="Shape"></path>
                    <path d="M15.6,19.4855576 C15.6,19.4855576 15.6,24.7952468 10.3,24.7952468" id="Shape"></path>
                    <path d="M10.3,21.1886654 C10.3,21.1886654 5.15,20.6877514 5.15,14.7769653" id="Shape"></path>
                </g>
                <g id="Group-4" transform="translate(1072.000000, 383.000000)" stroke="#00ACC1" stroke-width="1.5" fill="#FFFFFF">
                    <ellipse id="Oval" cx="2.85" cy="5.66837294" rx="1.8" ry="1.80329068"></ellipse>
                    <g id="Group" transform="translate(0.000000, 9.475320)">
                        <path d="M5.25,2.80511883 C5.25,1.40255941 4.15,0.250457038 2.75,0.250457038 C1.35,0.250457038 0.25,1.35246801 0.25,2.75502742 L0.25,4.30786106 L5.25,4.30786106 L5.25,2.80511883 L5.25,2.80511883 Z" id="Shape"></path>
                        <path d="M0.25,4.50822669 L0.25,8.51553931" id="Shape"></path>
                        <path d="M5.25,4.50822669 L5.25,8.51553931" id="Shape"></path>
                    </g>
                    <ellipse id="Oval" cx="14.35" cy="2.16197441" rx="1.8" ry="1.80329068"></ellipse>
                    <g id="Group" transform="translate(11.500000, 5.968921)">
                        <path d="M5.25,2.80511883 C5.25,1.40255941 4.15,0.250457038 2.75,0.250457038 C1.35,0.250457038 0.25,1.35246801 0.25,2.75502742 L0.25,7.8142596 L5.25,7.8142596 L5.25,2.80511883 L5.25,2.80511883 Z" id="Shape"></path>
                        <path d="M0.25,8.01462523 L0.25,12.0219378" id="Shape"></path>
                        <path d="M5.25,8.01462523 L5.25,12.0219378" id="Shape"></path>
                    </g>
                </g>
                <g id="Group-9" transform="translate(1234.000000, 383.000000)" stroke="#00ACC1" stroke-width="1.5">
                    <g id="Group" transform="translate(0.500000, 0.404022)">
                        <path d="M0.05,9.51736746 C0.05,12.4226691 2.4,14.7769653 5.3,14.7769653 C8.2,14.7769653 10.55,12.4226691 10.55,9.51736746 C10.55,6.61206581 8.2,0.250457038 5.3,0.250457038 C2.4,0.250457038 0.05,6.61206581 0.05,9.51736746 L0.05,9.51736746 Z" id="Shape" fill="#F5F5F5"></path>
                        <path d="M5.25,8.01462523 L5.25,21.5393053" id="Shape"></path>
                    </g>
                </g>
            </g>
        </g>
    </g>
</svg>