<?xml version="1.0" encoding="UTF-8" standalone="no"?>
<svg width="1440px" height="580px" viewBox="0 0 1440 580" version="1.1" xmlns="http://www.w3.org/2000/svg" xmlns:xlink="http://www.w3.org/1999/xlink">
    <!-- Generator: Sketch 40 (33762) - http://www.bohemiancoding.com/sketch -->
    <title>faq</title>
    <desc>Created with Sketch.</desc>
    <defs>
        <linearGradient x1="50%" y1="0%" x2="50%" y2="100%" id="linearGradient-1">
            <stop stop-color="#FFFFFF" offset="0%"></stop>
            <stop stop-color="#FAFAFA" offset="100%"></stop>
        </linearGradient>
    </defs>
    <g id="Hero" stroke="none" stroke-width="1" fill="none" fill-rule="evenodd">
        <g id="faq">
            <rect id="BG" fill="url(#linearGradient-1)" x="0" y="0" width="1440" height="580"></rect>
            <g id="Landscape" transform="translate(-199.000000, 376.000000)">
                <g id="City" transform="translate(532.000000, 0.000000)" fill="#F6F6F6">
                    <polygon id="Fill-1" points="10 230.981722 77.7170936 230.981722 77.7170936 168 10 168"></polygon>
                    <polygon id="Fill-2" points="0 177.06243 83.8992596 177.06243 83.8992596 168 0 168"></polygon>
                    <polygon id="Fill-3" points="22 149.06243 126.35308 149.06243 126.35308 140 22 140"></polygon>
                    <polygon id="Fill-4" points="676 234.099267 763.879992 234.099267 763.879992 161 676 161"></polygon>
                    <polygon id="Fill-5" points="667 170.06243 772.669429 170.06243 772.669429 161 667 161"></polygon>
                    <polygon id="Fill-6" points="30 220.22202 119.762342 220.22202 119.762342 140 30 140"></polygon>
                    <polygon id="Fill-7" points="647 218.591929 736.033598 218.591929 736.033598 131 647 131"></polygon>
                    <polygon id="Fill-8" points="44 154.125819 79.6724875 154.125819 79.6724875 131 44 131"></polygon>
                    <polygon id="Fill-9" points="98 145.779123 146.291581 145.779123 146.291581 122 98 122"></polygon>
                    <polygon id="Fill-10" points="295 186.785177 454.826973 186.785177 454.826973 56 295 56"></polygon>
                    <polygon id="Fill-11" points="262 167.785177 315.921351 167.785177 315.921351 37 262 37"></polygon>
                    <polygon id="Fill-12" points="518.765458 225.785177 604.353966 225.785177 604.353966 93 518.765458 93"></polygon>
                    <polygon id="Fill-13" points="518 94.4219424 611.321094 94.4219424 611.321094 87 518 87"></polygon>
                    <polygon id="Fill-14" points="404 74.4219424 497.321094 74.4219424 497.321094 67 404 67"></polygon>
                    <polygon id="Fill-15" points="286 63.4219424 379.321094 63.4219424 379.321094 56 286 56"></polygon>
                    <polygon id="Fill-16" points="411 198.785177 490.353966 198.785177 490.353966 68 411 68"></polygon>
                    <polygon id="Fill-17" points="246 203.402051 298 203.402051 298 66 246 66"></polygon>
                    <polygon id="Fill-18" points="184 235.006669 266.574269 235.006669 266.574269 72 184 72"></polygon>
                    <polygon id="Fill-19" points="120 60.9496918 199.123533 60.9496918 199.123533 52 120 52"></polygon>
                    <polygon id="Fill-20" points="100 107.949692 198.394943 107.949692 198.394943 99 100 99"></polygon>
                    <polygon id="Fill-21" points="153 229.109258 189.767045 229.109258 189.767045 36 153 36"></polygon>
                    <polygon id="Fill-22" points="534 171.88957 567.588508 171.88957 567.588508 77 534 77"></polygon>
                    <polygon id="Fill-23" points="466 174.88957 519.472006 174.88957 519.472006 80 466 80"></polygon>
                    <polygon id="Fill-24" points="592 206.88957 645.472006 206.88957 645.472006 112 592 112"></polygon>
                    <polygon id="Fill-25" points="399 135.88957 432.588508 135.88957 432.588508 41 399 41"></polygon>
                    <polygon id="Fill-26" points="129 224.671816 232.437108 224.671816 232.437108 52 129 52"></polygon>
                    <polygon id="Fill-27" points="108 228.637366 191.532007 228.637366 191.532007 100 108 100"></polygon>
                    <polygon id="Fill-28" points="628 190.90721 709.95498 190.90721 709.95498 102 628 102"></polygon>
                    <polygon id="Fill-29" points="651 109.56723 674.468173 109.56723 674.468173 83 651 83"></polygon>
                    <polygon id="Fill-30" points="651 118.83443 654.227504 118.83443 654.227504 93 651 93"></polygon>
                    <polygon id="Fill-31" points="671 118.83443 674.227504 118.83443 674.227504 93 671 93"></polygon>
                    <polyline id="Fill-32" points="651 83.4599052 662.733367 74 674.468173 83.4599052"></polyline>
                    <polygon id="Fill-33" points="289.802895 0 273 42.3982978 304.204965 41.4342402"></polygon>
                </g>
                <circle id="Oval-2" stroke="#4AC3D2" stroke-width="1.5" fill="#FAFAFA" cx="918.5" cy="1012.5" r="918.5"></circle>
            </g>
            <g id="Group-6" transform="translate(819.000000, 313.000000)">
                <g id="Group">
                    <path d="M29.2,10.9700183 C31.15,4.90895795 36.85,0.500914077 43.6,0.500914077 C51.95,0.500914077 58.7,7.26325411 58.7,15.6285192" id="Shape" stroke="#00ACC1" stroke-width="1.5"></path>
                    <path d="M29.2,10.8197441 C31.15,4.75868373 36.85,0.350639854 43.6,0.350639854 C51.95,0.350639854 58.7,7.11297989 58.7,15.478245" id="Shape" stroke="#00ACC1" stroke-width="1.5"></path>
                    <path d="M58.05,10.7195612 C59,10.0683729 60.15,9.66764168 61.4,9.66764168 C64.6,9.66764168 67.25,12.2723949 67.25,15.5283364 L74.5,15.5283364" id="Shape" stroke="#00ACC1" stroke-width="1.5"></path>
                    <ellipse id="Oval" fill="#00ACC1" cx="1.45" cy="15.6786106" rx="1.2" ry="1.20219378"></ellipse>
                    <path d="M29.75,19.1850091 C30.6,18.183181 31.1,16.8808044 31.1,15.478245 C31.1,12.2723949 28.5,9.71773309 25.35,9.71773309 C22.15,9.71773309 19.6,12.3224863 19.6,15.478245 L19.45,15.478245 L5.75,15.478245" id="Shape" stroke="#00ACC1" stroke-width="1.5"></path>
                </g>
            </g>
            <g id="Group-5" transform="translate(1185.000000, 190.000000)" stroke="#00ACC1" stroke-width="1.5">
                <path d="M38.6,10.8402194 C40.55,4.77915905 46.25,0.371115174 53,0.371115174 C61.35,0.371115174 68.1,7.13345521 68.1,15.4987203" id="Shape"></path>
                <path d="M38.6,10.7400366 C40.55,4.67897623 46.25,0.270932358 53,0.270932358 C61.35,0.270932358 68.1,7.03327239 68.1,15.3985375" id="Shape"></path>
                <path d="M67.45,10.5897623 C68.4,9.93857404 69.55,9.53784278 70.8,9.53784278 C74,9.53784278 76.65,12.142596 76.65,15.3985375 L83.9,15.3985375" id="Shape"></path>
                <path d="M39.15,19.1053016 C40,18.1034735 40.5,16.8010969 40.5,15.3985375 C40.5,12.1926874 37.9,9.63802559 34.75,9.63802559 C31.55,9.63802559 29,12.2427788 29,15.3985375 L28.85,15.3985375 L15.15,15.3985375" id="Shape"></path>
                <path d="M26.5,20.9085923 L0,20.9085923" id="Shape"></path>
            </g>
            <g id="Group-6" transform="translate(183.500000, 330.000000) scale(-1, 1) translate(-183.500000, -330.000000) translate(146.000000, 320.000000)">
                <g id="Group">
                    <path d="M29.2,10.9700183 C31.15,4.90895795 36.85,0.500914077 43.6,0.500914077 C51.95,0.500914077 58.7,7.26325411 58.7,15.6285192" id="Shape" stroke="#00ACC1" stroke-width="1.5"></path>
                    <path d="M29.2,10.8197441 C31.15,4.75868373 36.85,0.350639854 43.6,0.350639854 C51.95,0.350639854 58.7,7.11297989 58.7,15.478245" id="Shape" stroke="#00ACC1" stroke-width="1.5"></path>
                    <path d="M58.05,10.7195612 C59,10.0683729 60.15,9.66764168 61.4,9.66764168 C64.6,9.66764168 67.25,12.2723949 67.25,15.5283364 L74.5,15.5283364" id="Shape" stroke="#00ACC1" stroke-width="1.5"></path>
                    <ellipse id="Oval" fill="#00ACC1" cx="1.45" cy="15.6786106" rx="1.2" ry="1.20219378"></ellipse>
                    <path d="M29.75,19.1850091 C30.6,18.183181 31.1,16.8808044 31.1,15.478245 C31.1,12.2723949 28.5,9.71773309 25.35,9.71773309 C22.15,9.71773309 19.6,12.3224863 19.6,15.478245 L19.45,15.478245 L5.75,15.478245" id="Shape" stroke="#00ACC1" stroke-width="1.5"></path>
                </g>
            </g>
            <g id="Group-6" transform="translate(372.500000, 178.000000) scale(-1, 1) translate(-372.500000, -178.000000) translate(335.000000, 168.000000)">
                <g id="Group">
                    <path d="M29.2,10.9700183 C31.15,4.90895795 36.85,0.500914077 43.6,0.500914077 C51.95,0.500914077 58.7,7.26325411 58.7,15.6285192" id="Shape" stroke="#00ACC1" stroke-width="1.5"></path>
                    <path d="M29.2,10.8197441 C31.15,4.75868373 36.85,0.350639854 43.6,0.350639854 C51.95,0.350639854 58.7,7.11297989 58.7,15.478245" id="Shape" stroke="#00ACC1" stroke-width="1.5"></path>
                    <path d="M58.05,10.7195612 C59,10.0683729 60.15,9.66764168 61.4,9.66764168 C64.6,9.66764168 67.25,12.2723949 67.25,15.5283364 L74.5,15.5283364" id="Shape" stroke="#00ACC1" stroke-width="1.5"></path>
                    <ellipse id="Oval" fill="#00ACC1" cx="1.45" cy="15.6786106" rx="1.2" ry="1.20219378"></ellipse>
                    <path d="M29.75,19.1850091 C30.6,18.183181 31.1,16.8808044 31.1,15.478245 C31.1,12.2723949 28.5,9.71773309 25.35,9.71773309 C22.15,9.71773309 19.6,12.3224863 19.6,15.478245 L19.45,15.478245 L5.75,15.478245" id="Shape" stroke="#00ACC1" stroke-width="1.5"></path>
                </g>
            </g>
            <path d="M696,424 L696,449.546618" id="Shape" stroke="#F9A825" stroke-width="1.5" fill="#FFFFFF"></path>
            <path d="M726,424 L726,449.546618" id="Shape" stroke="#F9A825" stroke-width="1.5" fill="#FFFFFF"></path>
            <g id="Group" transform="translate(670.000000, 391.000000)">
                <g stroke-width="1.5" stroke="#F9A825">
                    <polygon id="Rectangle-path" fill="#FFF8E1" points="0 9 78.15 9 78.15 39.7561243 0 39.7561243"></polygon>
                    <g transform="translate(21.500000, 0.000000)" id="Shape" fill="#FFFFFF">
                        <path d="M4,8.511883 L4,2"></path>
                        <path d="M0,4.20767824 C0,1.20219378 1.9,0 4.2,0 C6.5,0 8.4,1.20219378 8.4,4.20767824 L0,4.20767824 L0,4.20767824 Z"></path>
                    </g>
                    <g transform="translate(47.500000, 0.000000)" id="Shape" fill="#FFFFFF">
                        <path d="M4,8.511883 L4,2"></path>
                        <path d="M0,4.20767824 C0,1.20219378 1.9,0 4.2,0 C6.5,0 8.4,1.20219378 8.4,4.20767824 L0,4.20767824 L0,4.20767824 Z"></path>
                    </g>
                </g>
                <text id="ANSWERS" font-family="Roboto-Medium, Roboto" font-size="13" font-weight="400" fill="#F9A825">
                    <tspan x="9.26293945" y="29">ANSWERS</tspan>
                </text>
            </g>
            <g id="Group-19" transform="translate(600.000000, 447.000000)">
                <rect id="Rectangle-path" stroke="#00ACC1" stroke-width="1.5" fill="#FFFFFF" x="6.75" y="9.39305302" width="68.55" height="28.1012797"></rect>
                <path d="M76.15,0.126142596 L89.75,0.126142596 C92.5,0.126142596 94.75,2.38025594 94.75,5.13528336 L94.75,13.6508227 L0.75,13.6508227 L0.75,5.13528336 C0.75,2.38025594 2.95,0.126142596 5.7,0.126142596 L19.65,0.126142596 L76.15,0.126142596 L76.15,0.126142596 Z" id="Shape" stroke="#00ACC1" stroke-width="1.5" fill="#FAFAFA"></path>
                <rect id="Rectangle-path" fill="#9E9E9E" opacity="0.15" x="7.45" y="14.4021938" width="66.75" height="4.10749543"></rect>
                <rect id="Rectangle-path" stroke="#00ACC1" stroke-width="1.5" fill="#FFFFFF" x="40.65" y="24.0698355" width="15.5" height="13.4244973"></rect>
                <rect id="Rectangle-path" fill="#9E9E9E" opacity="0.15" x="41.4" y="26.6745887" width="14.05" height="4.10749543"></rect>
                <rect id="Rectangle-path" stroke="#00ACC1" stroke-width="1.5" fill="#FFFFFF" x="37.55" y="20.4632541" width="21.75" height="5.45996344"></rect>
                <path d="M48.25,25.9232176 L48.25,37.4442413" id="Shape" stroke="#00ACC1" stroke-width="1.5" fill="#FFFFFF"></path>
                <path d="M66.75,0.376599634 L66.75,13.9012797" id="Shape" stroke="#00ACC1" stroke-width="1.5" fill="#FFFFFF"></path>
                <path d="M55.75,0.376599634 L55.75,13.9012797" id="Shape" stroke="#00ACC1" stroke-width="1.5" fill="#FFFFFF"></path>
                <path d="M44.25,0.376599634 L44.25,13.9012797" id="Shape" stroke="#00ACC1" stroke-width="1.5" fill="#FFFFFF"></path>
                <path d="M32.75,0.376599634 L32.75,13.9012797" id="Shape" stroke="#00ACC1" stroke-width="1.5" fill="#FFFFFF"></path>
                <path d="M21.25,0.376599634 L21.25,13.9012797" id="Shape" stroke="#00ACC1" stroke-width="1.5" fill="#FFFFFF"></path>
                <path d="M10.25,0.376599634 L10.25,13.9012797" id="Shape" stroke="#00ACC1" stroke-width="1.5" fill="#FFFFFF"></path>
            </g>
            <g id="Group-8" transform="translate(493.000000, 481.000000)" stroke="#00ACC1" stroke-width="1.5">
                <g id="Group" transform="translate(0.000000, 0.369287)">
                    <path d="M5.1,9.06654479 C5.35,6.01096892 7.55,0.450822669 10.25,0.450822669 C12.75,0.450822669 14.85,5.35978062 15.3,8.4654479 C18.9,10.1685558 21.45,13.8753199 21.45,18.1330896 C21.45,18.4837294 21.45,18.8844607 21.4,19.2351005 C22.85,20.2369287 23.8,21.8899452 23.8,23.7934186 C23.8,26.7989031 21.35,29.2533821 18.35,29.2533821 C17.05,29.2533821 15.8,28.8025594 14.9,28.0010969 C13.65,28.502011 12.25,28.8025594 10.85,28.8025594 C4.95,28.8025594 0.2,23.9937843 0.2,18.1330896 C0.1,14.3261426 2.1,10.9700183 5.1,9.06654479 L5.1,9.06654479 Z" id="Shape" fill="#F5F5F5"></path>
                    <path d="M10.75,11.0201097 L10.75,41.0749543" id="Shape"></path>
                    <path d="M15.6,19.4855576 C15.6,19.4855576 15.6,24.7952468 10.3,24.7952468" id="Shape"></path>
                    <path d="M10.3,21.1886654 C10.3,21.1886654 5.15,20.6877514 5.15,14.7769653" id="Shape"></path>
                </g>
            </g>
            <g id="Group-8" transform="translate(978.000000, 495.000000)" stroke="#00ACC1" stroke-width="1.5">
                <g id="Group" transform="translate(0.000000, 0.369287)">
                    <path d="M5.1,9.06654479 C5.35,6.01096892 7.55,0.450822669 10.25,0.450822669 C12.75,0.450822669 14.85,5.35978062 15.3,8.4654479 C18.9,10.1685558 21.45,13.8753199 21.45,18.1330896 C21.45,18.4837294 21.45,18.8844607 21.4,19.2351005 C22.85,20.2369287 23.8,21.8899452 23.8,23.7934186 C23.8,26.7989031 21.35,29.2533821 18.35,29.2533821 C17.05,29.2533821 15.8,28.8025594 14.9,28.0010969 C13.65,28.502011 12.25,28.8025594 10.85,28.8025594 C4.95,28.8025594 0.2,23.9937843 0.2,18.1330896 C0.1,14.3261426 2.1,10.9700183 5.1,9.06654479 L5.1,9.06654479 Z" id="Shape" fill="#F5F5F5"></path>
                    <path d="M10.75,11.0201097 L10.75,41.0749543" id="Shape"></path>
                    <path d="M15.6,19.4855576 C15.6,19.4855576 15.6,24.7952468 10.3,24.7952468" id="Shape"></path>
                    <path d="M10.3,21.1886654 C10.3,21.1886654 5.15,20.6877514 5.15,14.7769653" id="Shape"></path>
                </g>
            </g>
            <g id="Group-9" transform="translate(1011.000000, 514.000000)" stroke="#00ACC1" stroke-width="1.5">
                <g id="Group" transform="translate(0.500000, 0.404022)">
                    <path d="M0.05,9.51736746 C0.05,12.4226691 2.4,14.7769653 5.3,14.7769653 C8.2,14.7769653 10.55,12.4226691 10.55,9.51736746 C10.55,6.61206581 8.2,0.250457038 5.3,0.250457038 C2.4,0.250457038 0.05,6.61206581 0.05,9.51736746 L0.05,9.51736746 Z" id="Shape" fill="#F5F5F5"></path>
                    <path d="M5.25,8.01462523 L5.25,21.5393053" id="Shape"></path>
                </g>
            </g>
            <g id="Group-18" transform="translate(664.000000, 439.000000)">
                <rect id="Rectangle-path" stroke="#00ACC1" stroke-width="1.5" fill="#FAFAFA" x="92.15" y="26.0943327" width="18" height="26.8489945"></rect>
                <path d="M106.75,49.9378428 L106.75,48.4351005" id="Shape" stroke="#00ACC1" stroke-width="1.5"></path>
                <path d="M102.75,49.9378428 L102.75,48.4351005" id="Shape" stroke="#00ACC1" stroke-width="1.5"></path>
                <path d="M99.25,49.9378428 L99.25,48.4351005" id="Shape" stroke="#00ACC1" stroke-width="1.5"></path>
                <path d="M95.75,49.9378428 L95.75,48.4351005" id="Shape" stroke="#00ACC1" stroke-width="1.5"></path>
                <path d="M106.75,44.928702 L106.75,43.4259598" id="Shape" stroke="#00ACC1" stroke-width="1.5"></path>
                <path d="M102.75,44.928702 L102.75,43.4259598" id="Shape" stroke="#00ACC1" stroke-width="1.5"></path>
                <path d="M99.25,44.928702 L99.25,43.4259598" id="Shape" stroke="#00ACC1" stroke-width="1.5"></path>
                <path d="M95.75,44.928702 L95.75,43.4259598" id="Shape" stroke="#00ACC1" stroke-width="1.5"></path>
                <path d="M106.75,40.4204753 L106.75,38.416819" id="Shape" stroke="#00ACC1" stroke-width="1.5"></path>
                <path d="M102.75,40.4204753 L102.75,38.416819" id="Shape" stroke="#00ACC1" stroke-width="1.5"></path>
                <path d="M99.25,40.4204753 L99.25,38.416819" id="Shape" stroke="#00ACC1" stroke-width="1.5"></path>
                <path d="M95.75,40.4204753 L95.75,38.416819" id="Shape" stroke="#00ACC1" stroke-width="1.5"></path>
                <path d="M106.75,36.4131627 L106.75,34.4095064" id="Shape" stroke="#00ACC1" stroke-width="1.5"></path>
                <path d="M102.75,36.4131627 L102.75,34.4095064" id="Shape" stroke="#00ACC1" stroke-width="1.5"></path>
                <path d="M99.25,36.4131627 L99.25,34.4095064" id="Shape" stroke="#00ACC1" stroke-width="1.5"></path>
                <path d="M95.75,36.4131627 L95.75,34.4095064" id="Shape" stroke="#00ACC1" stroke-width="1.5"></path>
                <path d="M106.75,31.4040219 L106.75,30.4021938" id="Shape" stroke="#00ACC1" stroke-width="1.5"></path>
                <path d="M102.75,31.4040219 L102.75,30.4021938" id="Shape" stroke="#00ACC1" stroke-width="1.5"></path>
                <path d="M99.25,31.4040219 L99.25,30.4021938" id="Shape" stroke="#00ACC1" stroke-width="1.5"></path>
                <path d="M95.75,31.4040219 L95.75,30.4021938" id="Shape" stroke="#00ACC1" stroke-width="1.5"></path>
                <rect id="Rectangle-path" stroke="#00ACC1" stroke-width="1.5" fill="#FFFFFF" x="2.7" y="5.25630713" width="89.3" height="48.03766"></rect>
                <rect id="Rectangle-path" stroke="#00ACC1" stroke-width="1.5" fill="#FFFFFF" x="0.2" y="0.547714808" width="94.25" height="4.65850091"></rect>
                <path d="M88,13.1224863 L91.5,13.1224863" id="Shape" stroke="#00ACC1" stroke-width="1.5"></path>
                <rect id="Rectangle-path" stroke="#00ACC1" stroke-width="1.5" fill="#F5F5F5" x="39.2" y="38.9177331" width="16.6" height="14.376234"></rect>
                <path d="M47.35,15.2318099 C36.3,15.2318099 26.6,16.6416819 21.15,20.1480804 L10.3,20.1480804 L10.3,39.1681901 L21.15,39.1681901 L73.6,39.1681901 L84.3,39.1681901 L84.3,20.1480804 L73.55,20.1480804 C68.05,16.6416819 58.4,15.2318099 47.35,15.2318099 Z" id="Shape" stroke="#00ACC1" stroke-width="1.5" fill="#FFFFFF"></path>
                <rect id="Rectangle-path" fill="#9E9E9E" opacity="0.2" x="3.05" y="6.05776965" width="88.1" height="3.70676417"></rect>
            </g>
            <g id="Group" transform="translate(819.000000, 449.000000)">
                <g transform="translate(28.000000, 0.000000)">
                    <g>
                        <rect id="Rectangle-path" stroke="#00ACC1" stroke-width="1.5" fill="#FFFFFF" x="22.2" y="39.1213894" width="4.25" height="15.8789762"></rect>
                        <polygon id="Shape" fill="#9E9E9E" opacity="0.15" points="25.75 50.2416819 22.9 47.7872029 22.9 44.1806216 25.75 44.1806216"></polygon>
                        <ellipse id="Oval" stroke="#00ACC1" stroke-width="1.5" fill="#EEEEEE" cx="23.9" cy="23.6932358" rx="20.45" ry="20.4873857"></ellipse>
                        <path d="M15.95,21.2387569 C15.25,26.1978062 12.15,25.0957952 9.45,26.3981718 C6.3,27.9510055 5.45,31.1067642 3.4,30.3553931 C1.25,29.5539305 0.35,26.0976234 0.35,23.6431444 C0.35,10.6193784 10.9,0.0500914077 23.9,0.0500914077 C36.9,0.0500914077 47.45,10.6193784 47.45,23.6431444 C47.45,26.8489945 46.4,31.8080439 43.15,31.7078611 C40.45,31.6076782 41.05,28.502011 39.45,27.7005484 C36.35,26.1477148 35.8,29.6541133 31.2,27.1996344" id="Shape" stroke="#00ACC1" stroke-width="1.5" fill="#FFFFFF"></path>
                        <ellipse id="Oval" stroke="#00ACC1" stroke-width="1.5" fill="#FFFFFF" cx="23.9" cy="23.6932358" rx="8.3" ry="8.31517367"></ellipse>
                        <g transform="translate(6.000000, 7.012797)" id="Shape" stroke="#00ACC1" fill="#F5F5F5">
                            <path d="M0.3,13.7751371 L3.4,13.023766" stroke-width="1.75"></path>
                            <path d="M5.75,6.71224863 L5,3.9071298" stroke-width="1.75"></path>
                            <path d="M31,3.50639854 L31,6.01096892" stroke-width="2"></path>
                            <path d="M11.5,0 L14.5,0" stroke-width="2"></path>
                            <path d="M35.1,13.7751371 L33.1,15.1276051" stroke-width="1.75"></path>
                        </g>
                    </g>
                    <path d="M26.45,11.5711152 L28.95,10.2687386" id="Shape" stroke="#00ACC1" stroke-width="2"></path>
                </g>
                <rect id="Rectangle-path" stroke="#00ACC1" stroke-width="1.50000562" fill="#FAFAFA" transform="translate(58.954895, 72.511812) rotate(180.156884) translate(-58.954895, -72.511812) " x="4.00468937" y="58.8368062" width="109.900412" height="27.3500111"></rect>
                <rect id="Rectangle-path" stroke="#00ACC1" stroke-width="1.5" fill="#FAFAFA" x="0.3" y="54.6296161" width="116.75" height="4.20767824"></rect>
                <rect id="Rectangle-path" stroke="#00ACC1" stroke-width="1.5" fill="#FFFFFF" x="43.75" y="72.7627057" width="15.5" height="13.4244973"></rect>
                <path d="M27.1,88.3912249 L10.7,88.3912249 C10.15,88.3912249 9.7,88.8420475 9.7,89.393053 L9.7,90.3948812 C9.7,90.9458867 10.15,91.3967093 10.7,91.3967093 L27.1,91.3967093 C27.65,91.3967093 28.1,90.9458867 28.1,90.3948812 L28.1,89.393053 C28.1,88.8420475 27.65,88.3912249 27.1,88.3912249 L27.1,88.3912249 Z" id="Shape" stroke="#00ACC1" stroke-width="1.5" fill="#FAFAFA"></path>
                <path d="M11.25,91.6471664 L11.25,94.6526508" id="Shape" stroke="#00ACC1" stroke-width="1.5"></path>
                <path d="M26.75,91.6471664 L26.75,94.6526508" id="Shape" stroke="#00ACC1" stroke-width="1.5"></path>
                <path d="M109,73.3638026 L113.5,73.3638026" id="Shape" stroke="#00ACC1" stroke-width="1.5" fill="#FAFAFA"></path>
                <g transform="translate(23.500000, 64.096892)" id="Rectangle-path">
                    <rect stroke="#00ACC1" stroke-width="1.5" fill="#FFFFFF" x="0.4" y="0.400731261" width="10.7" height="12.773309"></rect>
                    <rect fill="#9E9E9E" opacity="0.15" x="1.15" y="1.15210238" width="9.2" height="3.30603291"></rect>
                </g>
                <g transform="translate(71.000000, 64.096892)" id="Rectangle-path">
                    <rect stroke="#00ACC1" stroke-width="1.5" fill="#FFFFFF" x="0.45" y="0.400731261" width="10.7" height="12.773309"></rect>
                    <rect fill="#9E9E9E" opacity="0.15" x="1.2" y="1.15210238" width="9.2" height="3.30603291"></rect>
                    <rect stroke="#00ACC1" stroke-width="1.5" fill="#FFFFFF" x="19.1" y="0.400731261" width="10.7" height="12.773309"></rect>
                    <rect fill="#9E9E9E" opacity="0.15" x="19.85" y="1.15210238" width="9.2" height="3.30603291"></rect>
                </g>
                <path d="M4,64.697989 L8,64.697989" id="Shape" stroke="#00ACC1" stroke-width="1.5"></path>
                <path d="M51.75,72.6124314 L51.75,86.1371115" id="Shape" stroke="#00ACC1" stroke-width="1.5"></path>
                <rect id="Rectangle-path" stroke="#00ACC1" stroke-width="1.5" fill="#FAFAFA" x="11.1" y="82.2299817" width="15.55" height="6.16124314"></rect>
            </g>
            <g id="Group-4" transform="translate(549.000000, 502.000000)" stroke="#00ACC1" stroke-width="1.5" fill="#FFFFFF">
                <ellipse id="Oval" cx="2.85" cy="5.66837294" rx="1.8" ry="1.80329068"></ellipse>
                <g id="Group" transform="translate(0.000000, 9.475320)">
                    <path d="M5.25,2.80511883 C5.25,1.40255941 4.15,0.250457038 2.75,0.250457038 C1.35,0.250457038 0.25,1.35246801 0.25,2.75502742 L0.25,4.30786106 L5.25,4.30786106 L5.25,2.80511883 L5.25,2.80511883 Z" id="Shape"></path>
                    <path d="M0.25,4.50822669 L0.25,8.51553931" id="Shape"></path>
                    <path d="M5.25,4.50822669 L5.25,8.51553931" id="Shape"></path>
                </g>
                <ellipse id="Oval" cx="14.35" cy="2.16197441" rx="1.8" ry="1.80329068"></ellipse>
                <g id="Group" transform="translate(11.500000, 5.968921)">
                    <path d="M5.25,2.80511883 C5.25,1.40255941 4.15,0.250457038 2.75,0.250457038 C1.35,0.250457038 0.25,1.35246801 0.25,2.75502742 L0.25,7.8142596 L5.25,7.8142596 L5.25,2.80511883 L5.25,2.80511883 Z" id="Shape"></path>
                    <path d="M0.25,8.01462523 L0.25,12.0219378" id="Shape"></path>
                    <path d="M5.25,8.01462523 L5.25,12.0219378" id="Shape"></path>
                </g>
            </g>
            <g id="Group-4" transform="translate(789.000000, 518.000000)" stroke="#00ACC1" stroke-width="1.5" fill="#FFFFFF">
                <ellipse id="Oval" cx="2.85" cy="5.66837294" rx="1.8" ry="1.80329068"></ellipse>
                <g id="Group" transform="translate(0.000000, 9.475320)">
                    <path d="M5.25,2.80511883 C5.25,1.40255941 4.15,0.250457038 2.75,0.250457038 C1.35,0.250457038 0.25,1.35246801 0.25,2.75502742 L0.25,4.30786106 L5.25,4.30786106 L5.25,2.80511883 L5.25,2.80511883 Z" id="Shape"></path>
                    <path d="M0.25,4.50822669 L0.25,8.51553931" id="Shape"></path>
                    <path d="M5.25,4.50822669 L5.25,8.51553931" id="Shape"></path>
                </g>
                <ellipse id="Oval" cx="14.35" cy="2.16197441" rx="1.8" ry="1.80329068"></ellipse>
                <g id="Group" transform="translate(11.500000, 5.968921)">
                    <path d="M5.25,2.80511883 C5.25,1.40255941 4.15,0.250457038 2.75,0.250457038 C1.35,0.250457038 0.25,1.35246801 0.25,2.75502742 L0.25,7.8142596 L5.25,7.8142596 L5.25,2.80511883 L5.25,2.80511883 Z" id="Shape"></path>
                    <path d="M0.25,8.01462523 L0.25,12.0219378" id="Shape"></path>
                    <path d="M5.25,8.01462523 L5.25,12.0219378" id="Shape"></path>
                </g>
            </g>
            <g id="Group" transform="translate(535.000000, 502.000000)" stroke="#00ACC1" stroke-width="1.5" fill="#FFFFFF">
                <path d="M5.25,8.80511883 C5.25,7.40255941 4.15,6.25045704 2.75,6.25045704 C1.35,6.25045704 0.25,7.35246801 0.25,8.75502742 L0.25,13.8142596 L5.25,13.8142596 L5.25,8.80511883 L5.25,8.80511883 Z" id="Shape"></path>
                <path d="M0.25,14.0146252 L0.25,18.0219378" id="Shape"></path>
                <path d="M5.25,14.0146252 L5.25,18.0219378" id="Shape"></path>
                <ellipse id="Oval" cx="2.85" cy="2.19305302" rx="1.8" ry="1.80329068"></ellipse>
            </g>
            <g id="Group-3" transform="translate(378.000000, 350.000000)" stroke-width="1.5">
                <ellipse id="Oval" stroke="#F9A825" fill="#FFE082" opacity="0.2" cx="59.85" cy="59.9634369" rx="59.4" ry="59.5085923"></ellipse>
                <ellipse id="Oval" stroke="#F9A825" fill="#FFE082" opacity="0.3" cx="59.85" cy="59.9634369" rx="39.15" ry="39.2215722"></ellipse>
                <ellipse id="Oval" stroke="#F9A825" fill="#FFE082" opacity="0.5" cx="59.85" cy="59.9634369" rx="19.45" ry="19.4855576"></ellipse>
                <path d="M59.8,59.7129799 L37.85,188.948812" id="Shape" stroke="#00ACC1"></path>
                <path d="M59.8,59.7129799 L81.7,188.948812" id="Shape" stroke="#00ACC1"></path>
                <ellipse id="Oval" stroke="#F9A825" fill="#FFFFFF" cx="59.85" cy="59.9634369" rx="3.45" ry="3.45630713"></ellipse>
                <path d="M43,148.124314 L77,148.124314" id="Shape" stroke="#00ACC1"></path>
                <path d="M37,177.678245 L83,177.678245" id="Shape" stroke="#00ACC1"></path>
                <path d="M47.5,118.06947 L72.5,118.06947" id="Shape" stroke="#00ACC1"></path>
                <path d="M50.5,93.5246801 L69.5,93.5246801" id="Shape" stroke="#00ACC1"></path>
                <path d="M44.8,148.124314 L79.8,177.678245" id="Shape" stroke="#00ACC1"></path>
                <path d="M39.75,177.678245 L74.8,148.124314" id="Shape" stroke="#00ACC1"></path>
                <path d="M44.8,148.124314 L69.7,118.06947" id="Shape" stroke="#00ACC1"></path>
                <path d="M49.9,118.06947 L74.8,148.124314" id="Shape" stroke="#00ACC1"></path>
                <path d="M54.05,93.4244973 L69.7,118.06947" id="Shape" stroke="#00ACC1"></path>
                <path d="M65.5,93.4244973 L49.9,118.06947" id="Shape" stroke="#00ACC1"></path>
            </g>
            <g id="Group-4" transform="translate(574.000000, 507.000000)" stroke="#00ACC1" stroke-width="1.5">
                <path d="M17.6,6.69652651 L1.2,6.69652651 C0.65,6.69652651 0.2,7.14734918 0.2,7.69835466 L0.2,8.70018282 C0.2,9.2511883 0.65,9.70201097 1.2,9.70201097 L17.6,9.70201097 C18.15,9.70201097 18.6,9.2511883 18.6,8.70018282 L18.6,7.69835466 C18.6,7.14734918 18.15,6.69652651 17.6,6.69652651 L17.6,6.69652651 Z" id="Shape" fill="#FAFAFA"></path>
                <path d="M1.75,9.95246801 L1.75,12.9579525" id="Shape"></path>
                <path d="M17.25,9.95246801 L17.25,12.9579525" id="Shape"></path>
                <rect id="Rectangle-path" fill="#FAFAFA" x="1.6" y="0.535283364" width="15.55" height="6.16124314"></rect>
            </g>
        </g>
    </g>
</svg>