<?xml version="1.0" encoding="UTF-8" standalone="no"?>
<svg width="140px" height="140px" viewBox="0 0 140 140" version="1.1" xmlns="http://www.w3.org/2000/svg" xmlns:xlink="http://www.w3.org/1999/xlink">
    <!-- Generator: Sketch 40 (33762) - http://www.bohemiancoding.com/sketch -->
    <title>international</title>
    <desc>Created with Sketch.</desc>
    <defs>
        <circle id="path-1" cx="53" cy="53" r="53"></circle>
    </defs>
    <g id="Artboards" stroke="none" stroke-width="1" fill="none" fill-rule="evenodd">
        <g id="international">
            <g>
                <rect id="Rectangle" x="0" y="0" width="140" height="140"></rect>
                <g id="Group" transform="translate(17.000000, 17.000000)">
                    <mask id="mask-2" fill="white">
                        <use xlink:href="#path-1"></use>
                    </mask>
                    <use id="Mask" fill="#EEEEEE" xlink:href="#path-1"></use>
                    <g mask="url(#mask-2)" id="Rectangle-2" fill="#FFFFFF">
                        <g transform="translate(-30.000000, -56.000000)">
                            <polygon points="153 50 174 50 35 192 14 192"></polygon>
                            <polygon transform="translate(107.000000, 107.000000) rotate(-135.000000) translate(-107.000000, -107.000000) " points="166 36 187 36 48 178 27 178"></polygon>
                        </g>
                    </g>
                </g>
                <g id="Group-9" transform="translate(14.000000, 29.000000)">
                    <path d="M21.8876302,68.9787698 C19.4195342,67.188722 20.0365582,51.3447089 20.0365582,51.3447089 L25.5897742,31.9935246 L36.4482062,28.7274897 C36.4482062,28.7274897 40.6394062,28.2043796 45.6817422,28.2043796 C51.4799822,28.2043796 58.4041422,28.8957016 61.3741902,31.8719842 C66.9264142,37.4356198 63.1022542,42.5160106 51.8728142,48.0796463 C40.6433742,53.6432819 27.6868622,62.4233641 21.8876302,68.9787698" id="Fill-1" fill="#000000" opacity="0.07"></path>
                    <path d="M41.954656,20.5617272 C41.954656,36.1636317 28.545792,37.9779875 22.705888,67.0067086 C22.511456,67.9712536 21.882528,68.9163522 20.976832,68.9163522 C20.072128,68.9163522 19.356896,67.972226 19.191232,67.004764 C14.231232,38.0586904 0,36.1636317 0,20.5617272 C0,9.20595985 9.392256,0 20.976832,0 C32.5624,0 41.954656,9.20595985 41.954656,20.5617272" id="Fill-3" fill="#00BCD4"></path>
                    <path d="M29.809696,21.1788029 C29.809696,25.9208251 25.887328,29.7653926 21.048352,29.7653926 C16.210368,29.7653926 12.288,25.9208251 12.288,21.1788029 C12.288,16.4358084 16.210368,12.5912409 21.048352,12.5912409 C25.887328,12.5912409 29.809696,16.4358084 29.809696,21.1788029" id="Fill-5" fill="#FFFFFF"></path>
                </g>
                <path d="M81.311792,50.9880003 C79.923488,49.9762342 80.270564,41.0209224 80.270564,41.0209224 L83.394248,30.0832965 L89.502116,28.2372768 C89.502116,28.2372768 91.859666,27.9416058 94.69598,27.9416058 C97.95749,27.9416058 101.85233,28.3323531 103.522982,30.0145998 C106.646108,33.1592634 104.495018,36.0307886 98.178458,39.1754523 C91.861898,42.3201159 84.57386,47.282771 81.311792,50.9880003" id="Fill-1" fill="#000000" opacity="0.07"></path>
                <g id="Group-9" transform="translate(69.000000, 12.000000)">
                    <path d="M23.599494,11.6218458 C23.599494,20.4403136 16.057008,21.465819 12.772062,37.8733571 C12.662694,38.4185347 12.308922,38.9527208 11.799468,38.9527208 C11.290572,38.9527208 10.888254,38.4190842 10.795068,37.8722579 C8.005068,21.5114337 0,20.4403136 0,11.6218458 C0,5.20336861 5.283144,0 11.799468,0 C18.31635,0 23.599494,5.20336861 23.599494,11.6218458" id="Fill-3" fill="#00BCD4"></path>
                    <path d="M16.767954,11.9706277 C16.767954,14.6509012 14.561622,16.8239176 11.839698,16.8239176 C9.118332,16.8239176 6.912,14.6509012 6.912,11.9706277 C6.912,9.28980474 9.118332,7.11678832 11.839698,7.11678832 C14.561622,7.11678832 16.767954,9.28980474 16.767954,11.9706277" id="Fill-5" fill="#FFFFFF"></path>
                </g>
            </g>
        </g>
    </g>
</svg>