<?xml version="1.0" encoding="UTF-8" standalone="no"?>
<svg width="720px" height="624px" viewBox="0 0 720 624" version="1.1" xmlns="http://www.w3.org/2000/svg" xmlns:xlink="http://www.w3.org/1999/xlink">
    <!-- Generator: Sketch 40 (33762) - http://www.bohemiancoding.com/sketch -->
    <title>lines</title>
    <desc>Created with Sketch.</desc>
    <defs>
        <rect id="path-1" x="0" y="0" width="720" height="624"></rect>
        <mask id="mask-2" maskContentUnits="userSpaceOnUse" maskUnits="objectBoundingBox" x="0" y="0" width="720" height="624" fill="white">
            <use xlink:href="#path-1"></use>
        </mask>
        <mask id="mask-4" maskContentUnits="userSpaceOnUse" maskUnits="objectBoundingBox" x="0" y="0" width="720" height="624" fill="white">
            <use xlink:href="#path-1"></use>
        </mask>
    </defs>
    <g id="Screens" stroke="none" stroke-width="1" fill="none" fill-rule="evenodd">
        <g id="Phones" transform="translate(-720.000000, -638.000000)">
            <g id="lines" transform="translate(720.000000, 638.000000)">
                <mask id="mask-3" fill="white">
                    <use xlink:href="#path-1"></use>
                </mask>
                <g id="Mask" mask="url(#mask-2)" stroke-width="2">
                    <use mask="url(#mask-4)" xlink:href="#path-1"></use>
                </g>
                <g mask="url(#mask-3)">
                    <g transform="translate(-88.000000, 266.000000)">
                        <g id="Group-44" stroke-width="1" fill="none">
                            <path d="M97.658,243.58 L97.658,393 C97.658,393.552 98.105,394 98.658,394 C99.21,394 99.658,393.552 99.658,393 L99.658,243.58 C99.658,243.028 99.21,242.58 98.658,242.58 C98.105,242.58 97.658,243.028 97.658,243.58" id="Fill-4" fill="#27B5C3"></path>
                            <path d="M160.098,73.724 L160.098,393 C160.098,393.552 160.545,394 161.098,394 C161.65,394 162.098,393.552 162.098,393 L162.098,73.724 C162.098,73.172 161.65,72.724 161.098,72.724 C160.545,72.724 160.098,73.172 160.098,73.724" id="Fill-7" fill="#F6BD27"></path>
                            <path d="M222.537,197.22 L222.537,393 C222.537,393.552 222.984,394 223.537,394 C224.089,394 224.537,393.552 224.537,393 L224.537,197.22 C224.537,196.667 224.089,196.22 223.537,196.22 C222.984,196.22 222.537,196.667 222.537,197.22" id="Fill-11" fill="#82BA4A"></path>
                            <path d="M570.731,157.131 L570.731,393 C570.731,393.552 571.179,394 571.731,394 C572.284,394 572.731,393.552 572.731,393 L572.731,157.131 C572.731,156.579 572.284,156.131 571.731,156.131 C571.179,156.131 570.731,156.579 570.731,157.131" id="Fill-20" fill="#82BA4A"></path>
                            <path d="M633.56,136.899 L633.56,377 C633.56,377.552 634.01,378 634.56,378 C635.11,378 635.56,377.552 635.56,377 L635.56,136.899 C635.56,136.347 635.11,135.899 634.56,135.899 C634.01,135.899 633.56,136.347 633.56,136.899" id="Fill-42" fill="#F6BD27"></path>
                        </g>
                        <path d="M226.537,195.22 C226.537,193.563 225.193,192.22 223.537,192.22 C221.879,192.22 220.537,193.563 220.537,195.22 C220.537,196.877 221.879,198.22 223.537,198.22 C225.193,198.22 226.537,196.877 226.537,195.22" id="Fill-46" fill="#639841"></path>
                        <path d="M574.731,155.131 C574.731,153.474 573.389,152.131 571.731,152.131 C570.075,152.131 568.731,153.474 568.731,155.131 C568.731,156.788 570.075,158.131 571.731,158.131 C573.389,158.131 574.731,156.788 574.731,155.131" id="Fill-47" fill="#639841"></path>
                        <path d="M101.658,241.58 C101.658,239.923 100.315,238.58 98.658,238.58 C97.002,238.58 95.658,239.923 95.658,241.58 C95.658,243.237 97.002,244.58 98.658,244.58 C100.315,244.58 101.658,243.237 101.658,241.58" id="Fill-49" fill="#1B8E97"></path>
                        <path d="M164.098,71.724 C164.098,70.067 162.754,68.724 161.098,68.724 C159.44,68.724 158.098,70.067 158.098,71.724 C158.098,73.381 159.44,74.724 161.098,74.724 C162.754,74.724 164.098,73.381 164.098,71.724" id="Fill-51" fill="#EA842C"></path>
                        <path d="M637.56,134.897 C637.56,133.24 636.22,131.897 634.56,131.897 C632.9,131.897 631.56,133.24 631.56,134.897 C631.56,136.554 632.9,137.897 634.56,137.897 C636.22,137.897 637.56,136.554 637.56,134.897" id="Fill-53" fill="#EA842C"></path>
                    </g>
                </g>
            </g>
        </g>
    </g>
</svg>
