<?xml version="1.0" encoding="UTF-8" standalone="no"?>
<svg width="720px" height="624px" viewBox="0 0 720 624" version="1.1" xmlns="http://www.w3.org/2000/svg" xmlns:xlink="http://www.w3.org/1999/xlink">
    <!-- Generator: Sketch 40 (33762) - http://www.bohemiancoding.com/sketch -->
    <title>lines</title>
    <desc>Created with Sketch.</desc>
    <defs>
        <rect id="path-1" x="0" y="0" width="720" height="624"></rect>
        <mask id="mask-2" maskContentUnits="userSpaceOnUse" maskUnits="objectBoundingBox" x="0" y="0" width="720" height="624" fill="white">
            <use xlink:href="#path-1"></use>
        </mask>
        <mask id="mask-4" maskContentUnits="userSpaceOnUse" maskUnits="objectBoundingBox" x="0" y="0" width="720" height="624" fill="white">
            <use xlink:href="#path-1"></use>
        </mask>
    </defs>
    <g id="Screens" stroke="none" stroke-width="1" fill="none" fill-rule="evenodd">
        <g id="Phones" transform="translate(-720.000000, -638.000000)">
            <g id="lines" transform="translate(720.000000, 638.000000)">
                <mask id="mask-3" fill="white">
                    <use xlink:href="#path-1"></use>
                </mask>
                <g id="Mask" mask="url(#mask-2)" stroke-width="2">
                    <use mask="url(#mask-4)" xlink:href="#path-1"></use>
                </g>
                <g id="lines2" mask="url(#mask-3)" fill="#D0DBDC">
                    <g transform="translate(40.000000, 403.000000)">
                        <path d="M63.317,1.664 L63.317,264 C63.317,264.552 63.764,265 64.317,265 C64.869,265 65.317,264.552 65.317,264 L65.317,1.664 C65.317,1.112 64.869,0.664 64.317,0.664 C63.764,0.664 63.317,1.112 63.317,1.664" id="Fill-6"></path>
                        <path d="M0.878,20.131 L0.878,256 C0.878,256.552 1.325,257 1.878,257 C2.43,257 2.878,256.552 2.878,256 L2.878,20.131 C2.878,19.579 2.43,19.131 1.878,19.131 C1.325,19.131 0.878,19.579 0.878,20.131" id="Fill-8"></path>
                        <path d="M473.951,94 L473.951,256 C473.951,256.552 474.398,257 474.951,257 C475.503,257 475.951,256.552 475.951,256 L475.951,94 C475.951,93.448 475.503,93 474.951,93 C474.398,93 473.951,93.448 473.951,94" id="Fill-19"></path>
                        <path d="M536.39,142.847 L536.39,296 C536.39,296.552 536.837,297 537.39,297 C537.942,297 538.39,296.552 538.39,296 L538.39,142.847 C538.39,142.295 537.942,141.847 537.39,141.847 C536.837,141.847 536.39,142.295 536.39,142.847" id="Fill-23"></path>
                    </g>
                </g>
            </g>
        </g>
    </g>
</svg>
