<?xml version="1.0" encoding="UTF-8" standalone="no"?>
<svg width="140px" height="140px" viewBox="0 0 140 140" version="1.1" xmlns="http://www.w3.org/2000/svg" xmlns:xlink="http://www.w3.org/1999/xlink">
    <!-- Generator: Sketch 40 (33762) - http://www.bohemiancoding.com/sketch -->
    <title>lte</title>
    <desc>Created with Sketch.</desc>
    <defs>
        <circle id="path-1" cx="53" cy="53" r="53"></circle>
    </defs>
    <g id="Artboards" stroke="none" stroke-width="1" fill="none" fill-rule="evenodd">
        <g id="lte">
            <g id="networks">
                <rect id="Rectangle" x="0" y="0" width="140" height="140"></rect>
                <g id="Rectangle-3" transform="translate(7.000000, 3.000000)">
                    <g id="Mask" transform="translate(9.000000, 13.000000)">
                        <mask id="mask-2" fill="white">
                            <use xlink:href="#path-1"></use>
                        </mask>
                        <use fill="#EEEEEE" xlink:href="#path-1"></use>
                        <g id="Group-2" mask="url(#mask-2)" fill="#FFFFFF">
                            <g transform="translate(-6.000000, 31.000000)">
                                <path d="M106.866059,13.4011924 C106.866059,20.5959591 101.014221,26.4279267 93.7966282,26.4279267 C86.5782802,26.4279267 80.7264429,20.5959591 80.7264429,13.4011924 C80.7264429,6.20642562 86.5782802,0.374458004 93.7966282,0.374458004 C101.014221,0.374458004 106.866059,6.20642562 106.866059,13.4011924" id="Fill-4"></path>
                                <path d="M83.1745358,18.3908734 C83.1745358,23.1497589 79.3045167,27.0071352 74.5300336,27.0071352 C69.7555505,27.0071352 65.8847765,23.1497589 65.8847765,18.3908734 C65.8847765,13.6319878 69.7555505,9.77461153 74.5300336,9.77461153 C79.3045167,9.77461153 83.1745358,13.6319878 83.1745358,18.3908734" id="Fill-6"></path>
                                <path d="M115.129523,20.9500912 C115.129523,24.2957594 112.408581,27.0070599 109.052702,27.0070599 C105.696069,27.0070599 102.975127,24.2957594 102.975127,20.9500912 C102.975127,17.6044231 105.696069,14.8931226 109.052702,14.8931226 C112.408581,14.8931226 115.129523,17.6044231 115.129523,20.9500912" id="Fill-8"></path>
                                <polygon id="Fill-11" points="74.5298071 27.0074362 109.052702 27.0074362 96.8439474 8.52950526 75.9061326 21.3425262"></polygon>
                                <path d="M0.218388918,28.6884893 C0.218388918,35.4317489 5.70330667,40.8987482 12.4686677,40.8987482 C19.2347837,40.8987482 24.7189465,35.4317489 24.7189465,28.6884893 C24.7189465,21.9452297 19.2347837,16.4782304 12.4686677,16.4782304 C5.70330667,16.4782304 0.218388918,21.9452297 0.218388918,28.6884893" id="Fill-13"></path>
                                <path d="M22.4249448,33.3654263 C22.4249448,37.8255646 26.0526158,41.4421371 30.5281274,41.4421371 C35.0028842,41.4421371 38.6305552,37.8255646 38.6305552,33.3654263 C38.6305552,28.905288 35.0028842,25.2887156 30.5281274,25.2887156 C26.0526158,25.2887156 22.4249448,28.905288 22.4249448,33.3654263" id="Fill-16"></path>
                                <polygon id="Fill-21" points="30.5278255 41.4419113 1.39170078 41.4419113 12.0467103 30.8217102 29.2375674 36.132187"></polygon>
                            </g>
                        </g>
                        <path d="M55.9860682,110.204201 L68.2250223,94.9327233 L78.4255349,139.126245 L55.9860682,110.204201 Z M28.5282604,136.834846 L38.1768838,95.035065 L49.9092474,110.156793 L28.5282604,136.834846 Z M47.8859055,52.9719045 L50.5260648,58.0935008 L43.6044232,71.518314 L47.8859055,52.9719045 Z M53.6086414,14.4854333 C54.4444024,14.4854333 55.1246379,15.1626941 55.1246379,15.9957248 C55.1246379,16.828003 54.4444024,17.5060163 53.6086414,17.5060163 C52.7736353,17.5060163 52.0933998,16.828003 52.0933998,15.9957248 C52.0933998,15.1626941 52.7736353,14.4854333 53.6086414,14.4854333 L53.6086414,14.4854333 Z M53.2122777,52.8831081 L49.5476128,45.7733752 L53.2122777,29.895373 L56.8776977,45.7741277 L53.2122777,52.8831081 Z M66.6169184,89.3092015 L52.9782345,106.327259 L39.7925375,89.3325294 L53.2115228,63.3046461 L66.6169184,89.3092015 Z M55.8977358,58.0935008 L58.53865,52.9719045 L62.8216423,71.5243341 L55.8977358,58.0935008 Z M92.094418,177.097998 L72.0316232,90.1828679 L72.2800111,89.872833 L71.7009427,88.7508377 L56.2231314,21.6952503 C58.3906743,20.7034396 59.9028959,18.5249175 59.9028959,15.9957248 C59.9028959,12.5371799 57.0792769,9.72278519 53.6086414,9.72278519 C50.1387609,9.72278519 47.3151418,12.5371799 47.3151418,15.9957248 C47.3151418,18.2397154 48.5072526,20.2067817 50.2897565,21.3152318 L34.7266327,88.7387975 L34.1536042,89.8495051 L34.3974622,90.1640551 L14.3308925,177.097998 C14.034941,178.380279 14.8374829,179.658044 16.1232111,179.953028 C17.4066743,180.244251 18.6916474,179.448093 18.987599,178.165813 L26.486044,145.680624 C27.1564648,145.655039 27.812541,145.358549 28.264018,144.79567 L52.9170812,114.033734 L76.6717202,144.650435 C77.1428267,145.25696 77.8487314,145.575273 78.5636959,145.575273 C79.0008284,145.575273 79.4379609,145.448098 79.8282847,145.202779 L87.4369565,178.165813 C87.6921392,179.268243 88.675121,180.013982 89.7637998,180.013982 C89.9412197,180.013982 90.1216596,179.993664 90.3013444,179.953028 C91.5878275,179.658044 92.3903695,178.380279 92.094418,177.097998 L92.094418,177.097998 Z" fill="#00BCD4" mask="url(#mask-2)"></path>
                    </g>
                    <g id="Page-1" transform="translate(96.814971, 29.220563) rotate(-315.000000) translate(-96.814971, -29.220563) translate(76.814971, 8.720563)" fill="#F4B400">
                        <path d="M12.6642019,40.3009433 C11.4934029,40.3009433 10.5444692,39.3520096 10.5444692,38.1812106 C10.5444692,33.5361696 6.76498572,29.7566861 2.11994471,29.7566861 C0.949145662,29.7566861 0.000211973274,28.8077524 0.000211973274,27.6369534 C0.000211973274,26.4661543 0.949145662,25.5172206 2.11994471,25.5172206 C9.10234435,25.5172206 14.7839347,31.1981044 14.7839347,38.1812106 C14.7839347,39.3520096 13.835001,40.3009433 12.6642019,40.3009433" id="Fill-4"></path>
                        <path d="M24.2218519,38.3024401 C23.0510528,38.3024401 22.1021191,37.3535064 22.1021191,36.1827074 C22.1021191,26.2665976 14.0344163,18.1988948 4.11830659,18.1988948 C2.94750754,18.1988948 1.99857385,17.2499612 1.99857385,16.0791621 C1.99857385,14.9083631 2.94750754,13.9594294 4.11830659,13.9594294 C16.3724815,13.9594294 26.3415846,23.9285324 26.3415846,36.1827074 C26.3415846,37.3535064 25.3926509,38.3024401 24.2218519,38.3024401" id="Fill-1"></path>
                        <path d="M34.5063775,36.4226431 C36.1469829,20.1831492 20.5971064,4.61619483 3.55885648,5.4751221 C1.61160887,5.57328617 0.0288860185,4.89412358 0.0288860185,2.94440323 C0.0288860185,0.994682876 1.60969266,0.460265944 3.55885648,0.41368436 C24.4652415,-0.0859414373 40.067441,15.5162581 39.5678152,36.4226431 C39.5212337,38.3718066 38.9868167,39.9526136 37.0370964,39.9526136 C35.087376,39.9526136 34.3104033,38.3624894 34.5063775,36.4226431 Z" id="Fill-1"></path>
                    </g>
                    <g id="Page-1" transform="translate(28.814971, 29.220563) scale(-1, 1) rotate(-315.000000) translate(-28.814971, -29.220563) translate(8.814971, 8.720563)" fill="#F4B400">
                        <path d="M12.6642019,40.3009433 C11.4934029,40.3009433 10.5444692,39.3520096 10.5444692,38.1812106 C10.5444692,33.5361696 6.76498572,29.7566861 2.11994471,29.7566861 C0.949145662,29.7566861 0.000211973274,28.8077524 0.000211973274,27.6369534 C0.000211973274,26.4661543 0.949145662,25.5172206 2.11994471,25.5172206 C9.10234435,25.5172206 14.7839347,31.1981044 14.7839347,38.1812106 C14.7839347,39.3520096 13.835001,40.3009433 12.6642019,40.3009433" id="Fill-4"></path>
                        <path d="M24.2218519,38.3024401 C23.0510528,38.3024401 22.1021191,37.3535064 22.1021191,36.1827074 C22.1021191,26.2665976 14.0344163,18.1988948 4.11830659,18.1988948 C2.94750754,18.1988948 1.99857385,17.2499612 1.99857385,16.0791621 C1.99857385,14.9083631 2.94750754,13.9594294 4.11830659,13.9594294 C16.3724815,13.9594294 26.3415846,23.9285324 26.3415846,36.1827074 C26.3415846,37.3535064 25.3926509,38.3024401 24.2218519,38.3024401" id="Fill-1"></path>
                        <path d="M34.5063775,36.4226431 C36.1469829,20.1831492 20.5971064,4.61619483 3.55885648,5.4751221 C1.61160887,5.57328617 0.0288860185,4.89412358 0.0288860185,2.94440323 C0.0288860185,0.994682876 1.60969266,0.460265944 3.55885648,0.41368436 C24.4652415,-0.0859414373 40.067441,15.5162581 39.5678152,36.4226431 C39.5212337,38.3718066 38.9868167,39.9526136 37.0370964,39.9526136 C35.087376,39.9526136 34.3104033,38.3624894 34.5063775,36.4226431 Z" id="Fill-1"></path>
                    </g>
                </g>
                <polygon id="Fill-36" fill="#00BCD4" points="48.3126649 107.776312 90.1127965 107.776312 90.1127965 103.013664 48.3126649 103.013664"></polygon>
                <polygon id="Fill-34" fill="#00BCD4" points="80.2337538 59.6954639 58.1914057 59.6954639 58.1914057 64.4581121 80.2337538 64.4581121"></polygon>
                <g id="Group-38" transform="translate(58.000000, 59.638883)"></g>
            </g>
        </g>
    </g>
</svg>