<?xml version="1.0" encoding="UTF-8" standalone="no"?>
<svg width="140px" height="140px" viewBox="0 0 140 140" version="1.1" xmlns="http://www.w3.org/2000/svg" xmlns:xlink="http://www.w3.org/1999/xlink">
    <!-- Generator: Sketch 40 (33762) - http://www.bohemiancoding.com/sketch -->
    <title>lte</title>
    <desc>Created with Sketch.</desc>
    <defs></defs>
    <g id="Artboards" stroke="none" stroke-width="1" fill="none" fill-rule="evenodd">
        <g id="lte">
            <g id="wifi">
                <rect id="Rectangle" x="0" y="0" width="140" height="140"></rect>
                <circle id="Oval" fill="#EEEEEE" cx="70" cy="70" r="53"></circle>
                <g id="Page-1" transform="translate(70.281746, 46.390873) scale(-1, 1) rotate(-45.000000) translate(-70.281746, -46.390873) translate(48.281746, 23.890873)" fill="#F4B400">
                    <path d="M14.4454874,44.3897184 C13.1627713,44.3897184 12.1231288,43.3500759 12.1231288,42.0673598 C12.1231288,36.978298 7.98236337,32.8375326 2.89330153,32.8375326 C1.61058545,32.8375326 0.570942914,31.79789 0.570942914,30.515174 C0.570942914,29.2324579 1.61058545,28.1928154 2.89330153,28.1928154 C10.5431508,28.1928154 16.767846,34.4167364 16.767846,42.0673598 C16.767846,43.3500759 15.7282035,44.3897184 14.4454874,44.3897184" id="Fill-4"></path>
                    <path d="M27.1079365,42.2001777 C25.8252204,42.2001777 24.7855779,41.1605352 24.7855779,39.8778191 C24.7855779,29.0138255 15.946681,20.1749287 5.0826874,20.1749287 C3.79997133,20.1749287 2.76032879,19.1352861 2.76032879,17.85257 C2.76032879,16.569854 3.79997133,15.5302114 5.0826874,15.5302114 C18.5082425,15.5302114 29.4302951,26.452264 29.4302951,39.8778191 C29.4302951,41.1605352 28.3906526,42.2001777 27.1079365,42.2001777" id="Fill-1"></path>
                    <path d="M38.3755629,40.1406904 C40.1729943,22.3488585 23.1367006,5.29385436 4.4697593,6.23488673 C2.33637371,6.34243434 0.60235792,5.5983504 0.60235792,3.4622557 C0.60235792,1.32616101 2.33427433,0.740659004 4.4697593,0.689624673 C27.3745918,0.142239498 44.4682102,17.2358578 43.920825,40.1406904 C43.8697907,42.276175 43.2842887,44.0080918 41.148194,44.0080918 C39.0120993,44.0080918 38.1608555,42.2659671 38.3755629,40.1406904 Z" id="Fill-1"></path>
                </g>
                <rect id="Rectangle" fill="#00ACC1" x="66" y="97" width="8" height="26"></rect>
                <circle id="Oval-3" fill="#00BCD4" cx="70" cy="88" r="14"></circle>
                <circle id="Oval-6" fill="#FFFFFF" cx="70" cy="88" r="6"></circle>
            </g>
        </g>
    </g>
</svg>